<svg width="143" height="30" viewBox="0 0 143 30" fill="none" xmlns="http://www.w3.org/2000/svg">
<g clip-path="url(#clip0_4001_171)">
<mask id="mask0_4001_171" style="mask-type:luminance" maskUnits="userSpaceOnUse" x="0" y="0" width="143" height="30">
<path d="M142.493 0H0.492798V30H142.493V0Z" fill="white"/>
</mask>
<g mask="url(#mask0_4001_171)">
<path d="M141.835 26.3789C141.835 25.3521 141.178 24.6183 140.225 24.6183C139.271 24.6183 138.614 25.3521 138.614 26.3789C138.614 27.4057 139.271 28.1409 140.225 28.1409C141.178 28.1409 141.835 27.4071 141.835 26.3789ZM138.007 26.3789C138.007 25.0521 138.921 24.069 140.223 24.069C141.525 24.069 142.44 25.0521 142.44 26.3789C142.44 27.7057 141.525 28.6902 140.223 28.6902C138.921 28.6902 138.007 27.7071 138.007 26.3789ZM136.615 28.6127H137.207V24.1465H136.615V28.6127ZM133.535 28.0648C134.585 28.0648 135.223 27.3944 135.223 26.3803C135.223 25.3662 134.586 24.6958 133.535 24.6958H132.819V28.0648H133.535ZM132.227 24.1465H133.535C134.913 24.1465 135.815 25.0521 135.815 26.3803C135.815 27.7085 134.913 28.6141 133.535 28.6141H132.227V24.1465ZM127.896 26.9226V24.1465H128.489V26.8578C128.489 27.7127 128.966 28.1409 129.643 28.1409C130.32 28.1409 130.797 27.7127 130.797 26.8578V24.1465H131.39V26.9226C131.39 27.9761 130.72 28.6902 129.645 28.6902C128.569 28.6902 127.897 27.9761 127.897 26.9226H127.896ZM127.187 24.6817H125.853V28.6127H125.259V24.6817H123.919V24.1465H127.186V24.6817H127.187ZM120.292 27.7268L120.794 27.3564C120.962 27.8226 121.322 28.1409 121.839 28.1409C122.355 28.1409 122.695 27.924 122.695 27.4141C122.695 26.9803 122.438 26.7761 121.684 26.5141C121.11 26.3169 120.466 25.9268 120.466 25.238C120.466 24.5493 121.11 24.0704 121.832 24.0704C122.553 24.0704 122.966 24.3775 123.212 24.8817L122.741 25.2141C122.522 24.7479 122.175 24.6085 121.819 24.6085C121.432 24.6085 121.033 24.793 121.033 25.2141C121.033 25.6352 121.382 25.8395 122.129 26.1071C122.812 26.3493 123.289 26.7197 123.289 27.3704C123.289 28.2 122.58 28.6916 121.839 28.6916C121.156 28.6916 120.564 28.3845 120.292 27.7282V27.7268ZM117.986 25.0648H116.722V28.6141H115.743V25.0648H114.474V24.1465H117.986V25.0648ZM111.735 25.0648V26.093H113.649V26.8324H111.735V28.6127H110.755V24.1451H113.842V25.0634H111.735V25.0648ZM109.055 26.3789C109.055 25.5747 108.539 24.9873 107.753 24.9873C107.296 24.9873 106.953 25.1592 106.747 25.3831L106.902 25.5366C106.664 25.7338 106.451 26.0085 106.451 26.5C106.451 27.1761 106.933 27.7704 107.753 27.7704C108.572 27.7704 109.055 27.1831 109.055 26.3789ZM110.048 26.3789C110.048 27.6944 109.094 28.6902 107.754 28.6902C106.414 28.6902 105.46 27.7141 105.46 26.5324C105.46 25.7662 105.763 25.2113 106.207 24.8479L106.052 24.6944C106.394 24.3437 107.02 24.0676 107.754 24.0676C109.094 24.0676 110.048 25.0761 110.048 26.3775V26.3789ZM101.651 27.7071L102.431 27.1324C102.573 27.5352 102.941 27.7831 103.308 27.7831C103.629 27.7831 103.861 27.6113 103.861 27.3226C103.861 27.055 103.688 26.8888 103.043 26.6592C102.347 26.4099 101.832 26.0662 101.832 25.3254C101.832 24.5845 102.431 24.0676 103.301 24.0676C103.989 24.0676 104.526 24.3423 104.776 24.8845L103.996 25.4211C103.848 25.0888 103.616 24.9042 103.262 24.9042C102.966 24.9042 102.747 25.0634 102.747 25.293C102.747 25.555 102.992 25.7155 103.669 25.9507C104.442 26.2197 104.841 26.5634 104.841 27.2535C104.841 28.1789 104.126 28.6902 103.282 28.6902C102.502 28.6902 101.903 28.3451 101.651 27.7071ZM99.9881 28.6127H100.968V24.1465H99.9881V28.6127ZM97.7329 27.7578C98.1512 27.7578 98.3903 27.5662 98.3903 27.1972C98.3903 26.8282 98.1512 26.6352 97.7329 26.6352H97.1922V27.7578H97.7329ZM97.7073 25.9451C98.0104 25.9451 98.2167 25.7733 98.2167 25.4719C98.2167 25.1704 98.0104 25 97.7073 25H97.1922V25.9437H97.7073V25.9451ZM96.2119 24.1465H97.713C98.5838 24.1465 99.1572 24.562 99.1572 25.2254C99.1572 25.7296 98.9182 26.0366 98.5639 26.1831C99.0405 26.362 99.3692 26.6873 99.3692 27.2873C99.3692 28.0592 98.7574 28.6155 97.7713 28.6155H96.2119V24.1479V24.1465ZM91.7015 26.8268V24.1465H92.6818V26.7507C92.6818 27.4014 92.992 27.7719 93.564 27.7719C94.136 27.7719 94.4476 27.4028 94.4476 26.7507V24.1465H95.4265V26.8268C95.4265 27.893 94.7691 28.6902 93.564 28.6902C92.3588 28.6902 91.7015 27.893 91.7015 26.8268ZM88.2795 27.1268L87.551 25.1803L87.3959 24.6451H87.3575L87.2024 25.1803L86.4811 27.1268H88.2795ZM88.4531 27.5986H86.3075L85.9347 28.6127H85.3101L87.0047 24.1451H87.726L89.4207 28.6127H88.8344L88.4531 27.5986Z" fill="white"/>
</g>
<mask id="mask1_4001_171" style="mask-type:luminance" maskUnits="userSpaceOnUse" x="0" y="0" width="143" height="30">
<path d="M142.493 0H0.492798V30H142.493V0Z" fill="white"/>
</mask>
<g mask="url(#mask1_4001_171)">
<path d="M82.5938 29.4437V23.269H82.0019V29.4437H82.5938Z" fill="white"/>
</g>
<mask id="mask2_4001_171" style="mask-type:luminance" maskUnits="userSpaceOnUse" x="0" y="0" width="143" height="30">
<path d="M142.493 0H0.492798V30H142.493V0Z" fill="white"/>
</mask>
<g mask="url(#mask2_4001_171)">
<path d="M79.29 24.6817H77.9554V28.6127H77.362V24.6817H76.0217V24.1465H79.2886V24.6817H79.29ZM71.719 24.1465H72.53L74.6828 27.924H74.7212L74.6828 27.3944V24.1465H75.2761V28.6141H74.4637L72.3124 24.8366H72.2739L72.3124 25.3662V28.6141H71.719V24.1465ZM70.9066 28.0648V28.6141H67.9997V24.1465H70.8667V24.6958H68.593V26.138H70.649V26.624H68.593V28.0662H70.9066V28.0648ZM62.4321 24.1465H63.1791L64.777 28.0718L66.3748 24.1465H67.1218V28.6141H66.5285V25.762L66.5669 25.1042H66.5285L65.0729 28.6141H64.4796L63.024 25.1042H62.9856L63.024 25.762V28.6141H62.4307V24.1465H62.4321ZM57.9985 24.1465H58.811L60.9637 27.924H61.0021L60.9637 27.3944V24.1465H61.5571V28.6141H60.7446L58.5918 24.8366H58.5534L58.5918 25.3662V28.6141H57.9985V24.1465ZM56.5301 28.6127H57.1235V24.1465H56.5301V28.6127ZM54.6804 27.1268L53.952 25.1803L53.7969 24.6451H53.7584L53.6034 25.1803L52.882 27.1268H54.6804ZM54.8555 27.5986H52.7098L52.3356 28.6127H51.711L53.4056 24.1451H54.127L55.8216 28.6127H55.2354L54.8555 27.5986ZM51.775 24.6817H50.4404V28.6127H49.8485V24.6817H48.5081V24.1465H51.775V24.6817ZM45.4476 26.2775H46.4009C46.9231 26.2775 47.2973 26.0282 47.2973 25.4859C47.2973 24.9437 46.9231 24.6958 46.4009 24.6958H45.4476V26.2775ZM47.2902 28.6141L46.2785 26.7634H45.4476V28.6141H44.8543V24.1465H46.4066C47.303 24.1465 47.8892 24.6761 47.8892 25.4549C47.8892 26.0733 47.5221 26.5338 46.9288 26.6986L47.9788 28.6141H47.2902ZM44.0418 28.0648V28.6141H41.135V24.1465H44.002V24.6958H41.7269V26.138H43.7829V26.624H41.7269V28.0662H44.0404L44.0418 28.0648ZM40.388 24.6817H39.0533V28.6127H38.4614V24.6817H37.1211V24.1465H40.388V24.6817ZM32.817 24.1465H33.6294L35.7808 27.924H35.8192L35.7808 27.3944V24.1465H36.3741V28.6141H35.5631L33.4103 24.8366H33.3719L33.4103 25.3662V28.6141H32.817V24.1465ZM32.006 28.0648V28.6141H29.0991V24.1465H31.9676V24.6958H29.6924V26.138H31.7484V26.624H29.6924V28.0662H32.006V28.0648ZM26.676 28.0648V28.6141H23.7691V24.1465H26.6362V24.6958H24.361V26.138H26.417V26.624H24.361V28.0662H26.6746L26.676 28.0648ZM19.0851 24.1465H19.7482L20.9021 27.4972L21.0572 28.0845H21.0956L21.2507 27.4972L22.379 24.1465H23.0691L21.4641 28.6141H20.6915L19.0865 24.1465H19.0851ZM17.796 28.6127H18.3893V24.1465H17.796V28.6127ZM14.0397 27.7268L14.542 27.3564C14.7099 27.8225 15.0698 28.1409 15.5863 28.1409C16.1028 28.1409 16.4443 27.924 16.4443 27.4141C16.4443 26.9803 16.1868 26.7761 15.4327 26.5141C14.8593 26.3169 14.2147 25.9268 14.2147 25.238C14.2147 24.5493 14.8593 24.0704 15.5806 24.0704C16.302 24.0704 16.7147 24.3775 16.9594 24.8817L16.4898 25.2141C16.2707 24.7479 15.9221 24.6085 15.5678 24.6085C15.1808 24.6085 14.781 24.793 14.781 25.2141C14.781 25.6352 15.1296 25.8394 15.8766 26.1071C16.5596 26.3493 17.0362 26.7197 17.0362 27.3704C17.0362 28.2 16.3276 28.6916 15.5863 28.6916C14.9034 28.6916 14.3115 28.3845 14.0397 27.7282V27.7268ZM10.5281 27.7268L11.0304 27.3564C11.1983 27.8225 11.5583 28.1409 12.0748 28.1409C12.5912 28.1409 12.9327 27.924 12.9327 27.4141C12.9327 26.9803 12.6752 26.7761 11.9211 26.5141C11.3477 26.3169 10.7031 25.9268 10.7031 25.238C10.7031 24.5493 11.3477 24.0704 12.0691 24.0704C12.7904 24.0704 13.2031 24.3775 13.4492 24.8817L12.9783 25.2141C12.7591 24.7479 12.4105 24.6085 12.0563 24.6085C11.6692 24.6085 11.2694 24.793 11.2694 25.2141C11.2694 25.6352 11.618 25.8394 12.365 26.1071C13.048 26.3493 13.5246 26.7197 13.5246 27.3704C13.5246 28.2 12.8161 28.6916 12.0748 28.6916C11.3918 28.6916 10.7999 28.3845 10.5281 27.7282V27.7268ZM9.03983 27.1268L8.31133 25.1803L8.15624 24.6451H8.11782L7.96273 25.1803L7.24135 27.1268H9.03983ZM9.21341 27.5986H7.06776L6.69355 28.6127H6.06892L7.76353 24.1451H8.48492L10.1795 28.6127H9.59331L9.21341 27.5986ZM0.667801 24.1465H1.41622L3.01407 28.0718L4.61193 24.1465H5.35892V28.6141H4.76702V25.762L4.80544 25.1042H4.76702L3.31003 28.6141H2.7167L1.26113 25.1042H1.22271L1.26113 25.762V28.6141H0.667801V24.1465Z" fill="white"/>
</g>
<mask id="mask3_4001_171" style="mask-type:luminance" maskUnits="userSpaceOnUse" x="0" y="0" width="143" height="30">
<path d="M142.493 0H0.492798V30H142.493V0Z" fill="white"/>
</mask>
<g mask="url(#mask3_4001_171)">
<path d="M115.733 11.9056L111.856 15.4957L107.979 11.9056V0.212646H102.067V13.5253L108.749 19.6591H114.966L121.648 13.5253V0.212646H115.735V11.9056H115.733ZM34.6212 0.212646L27.9395 6.34645V19.6591H33.8514V7.96476L37.7287 4.37321L41.6059 7.96476V19.6577H47.5179V6.34645L40.839 0.212646H34.6212ZM87.561 7.64645H77.3877V5.59434H90.0311V0.250675H74.3371L71.5796 2.8042V9.57039L74.4509 12.2634H75.3046H85.478V14.3155H71.5796V19.6577H88.5285L91.286 17.1028V10.3366L88.4147 7.64504H87.561V7.64645ZM65.7929 7.64645H55.6195V5.59434H68.2629V0.250675H52.569L49.8101 2.8042V9.57039L52.6814 12.2634H53.5365H63.7098V14.3155H49.8129V19.6577H66.7604L69.5179 17.1028V10.3366L66.6466 7.64504H65.7915L65.7929 7.64645ZM3.39683 0.250675L0.669235 3.138V19.6591H6.58258V6.1056H10.8454V14.8253H15.8097V6.1056H20.074V19.6591H25.9859V3.138L23.2583 0.250675H3.39683ZM142.493 5.62673V0.250675H126.809L123.932 2.93236V16.9972L126.809 19.6577H129.845H142.493V14.2817H129.845V12.0577H137.725V7.64222H129.845V5.62673H142.493ZM93.766 19.6577H99.678V0.250675H93.766V19.6591V19.6577Z" fill="white"/>
</g>
</g>
<defs>
<clipPath id="clip0_4001_171">
<rect width="142" height="30" fill="white" transform="translate(0.492798)"/>
</clipPath>
</defs>
</svg>
