<svg width="96" height="31" viewBox="0 0 96 31" fill="none" xmlns="http://www.w3.org/2000/svg">
<path fill-rule="evenodd" clip-rule="evenodd" d="M68.5219 24.7828C68.6911 24.4533 69.1756 24.6495 69.1364 24.9833C69.1148 25.1631 68.9704 25.2704 68.8657 25.2704C65.3422 25.2726 63.9385 25.2715 63.5149 25.2704C63.1973 24.8854 62.7984 24.5753 62.3469 24.3624C61.8954 24.1496 61.4024 24.0392 60.9032 24.0392C60.0011 24.0392 59.136 24.3975 58.4981 25.0354C57.8603 25.6733 57.5019 26.5384 57.5019 27.4405C57.5019 28.3426 57.8603 29.2077 58.4981 29.8455C59.136 30.4834 60.0011 30.8418 60.9032 30.8418C61.3988 30.844 61.8889 30.7383 62.3395 30.5321C62.7902 30.3259 63.1905 30.024 63.5128 29.6475H81.5902C81.7193 29.6475 81.8679 29.7755 81.8679 29.9955C81.8668 30.3346 81.5558 30.4128 81.3099 30.2753C80.6953 29.9326 80.6324 31.1607 81.7034 30.9571C82.1783 30.8661 82.4946 30.4737 82.4946 29.9966C82.4957 29.5254 82.1535 29.0203 81.5897 29.0203H63.3626C62.9712 29.0203 62.5486 30.2134 60.9032 30.2134C59.3716 30.2134 58.1308 28.9716 58.1308 27.4399C58.1308 25.9083 59.3716 24.6664 60.9032 24.6664C62.5428 24.6664 62.9611 25.8966 63.3615 25.8977C63.3615 25.8977 64.4521 25.9009 68.8651 25.8977C70.0271 25.8977 70.0694 24.036 68.8434 23.9911C68.4727 23.9768 68.1575 24.119 67.9634 24.4951C67.7719 24.8664 68.3299 25.1546 68.5219 24.7828ZM77.5987 27.1253H61.5411C61.4701 26.9814 61.3526 26.8659 61.2077 26.7973C61.0628 26.7288 60.8989 26.7113 60.7427 26.7477C60.5866 26.7841 60.4473 26.8723 60.3476 26.9979C60.248 27.1234 60.1937 27.2791 60.1937 27.4394C60.1937 27.5998 60.248 27.7554 60.3476 27.881C60.4473 28.0066 60.5866 28.0947 60.7427 28.1312C60.8989 28.1676 61.0628 28.1501 61.2077 28.0815C61.3526 28.013 61.4701 27.8974 61.5411 27.7536H77.5987C78.0181 27.7536 78.0181 27.1253 77.5987 27.1253ZM30.0996 24.7828C29.9293 24.4533 29.4459 24.6495 29.4851 24.9833C29.5062 25.1631 29.6511 25.2704 29.7553 25.2704C33.2783 25.2726 34.6825 25.2715 35.1061 25.2704C35.4236 24.8854 35.8224 24.5753 36.2738 24.3625C36.7252 24.1496 37.2181 24.0392 37.7172 24.0392C38.6193 24.0392 39.4844 24.3975 40.1223 25.0354C40.7602 25.6733 41.1185 26.5384 41.1185 27.4405C41.1185 28.3426 40.7602 29.2077 40.1223 29.8455C39.4844 30.4834 38.6193 30.8418 37.7172 30.8418C37.2217 30.844 36.7317 30.7383 36.2812 30.532C35.8306 30.3258 35.4304 30.024 35.1082 29.6475H17.0302C16.9012 29.6475 16.7526 29.7755 16.7531 29.9955C16.7536 30.3346 17.0652 30.4128 17.3111 30.2753C17.9251 29.9326 17.9886 31.1607 16.9165 30.9571C16.4421 30.8661 16.1258 30.4737 16.1253 29.9966C16.1248 29.5254 16.4664 29.0203 17.0302 29.0203H35.2574C35.6487 29.0203 36.0713 30.2134 37.7162 30.2134C38.4518 30.2134 39.1572 29.9212 39.6773 29.4011C40.1975 28.881 40.4897 28.1755 40.4897 27.4399C40.4897 26.7044 40.1975 25.9989 39.6773 25.4788C39.1572 24.9587 38.4518 24.6664 37.7162 24.6664C36.0771 24.6664 35.6593 25.8966 35.2579 25.8977C35.2579 25.8977 34.1679 25.9009 29.7548 25.8977C28.5934 25.8977 28.55 24.036 29.777 23.9911C30.1478 23.9768 30.463 24.119 30.6576 24.4951C30.8491 24.8664 30.2911 25.1546 30.0996 24.7828ZM21.0218 27.1253H37.0799C37.1508 26.9814 37.2683 26.8659 37.4133 26.7973C37.5582 26.7288 37.7221 26.7113 37.8783 26.7477C38.0344 26.7841 38.1737 26.8723 38.2733 26.9979C38.373 27.1234 38.4273 27.2791 38.4273 27.4394C38.4273 27.5998 38.373 27.7554 38.2733 27.881C38.1737 28.0066 38.0344 28.0947 37.8783 28.1312C37.7221 28.1676 37.5582 28.1501 37.4133 28.0815C37.2683 28.013 37.1508 27.8974 37.0799 27.7536H21.0218C20.6034 27.7536 20.6034 27.1253 21.0218 27.1253ZM63.3784 17.71V19.5241C65.7045 19.7171 67.8761 20.2016 69.8943 20.9753V18.9433C69.0534 18.8719 68.6478 18.4361 68.6753 17.6375V3.99427C68.6753 3.29296 68.9698 2.88149 69.5574 2.7609V1.39161H63.6291V3.16021C64.1062 3.16021 64.414 3.51087 64.5557 4.21217V16.5491C64.3875 17.4434 63.9951 17.8305 63.3784 17.71ZM53.3295 16.4761V18.2907L59.5524 18.617V17.0933C58.7115 16.9722 58.3191 16.4523 58.3746 15.5331V10.8524C59.3848 10.9 59.9311 11.3236 60.0152 12.1217H62.1175V7.44104H59.8883C60.0565 8.3116 59.5514 8.73524 58.3751 8.71144V3.7769C60.2532 3.60712 61.0661 4.5147 60.8138 6.49856H63.3789V1.39161H53.33V3.16021C54.171 3.35378 54.5914 3.7769 54.5914 4.42955V15.2792C54.3386 16.0768 53.9187 16.4761 53.3295 16.4761ZM43.8476 12.1217V18.2902L46.2482 18.2838V17.6682C49.7109 19.7509 52.7171 17.2393 52.7171 15.2977V12.2185C52.7171 8.42584 47.7698 8.53585 47.7698 5.80572V4.85319C47.7698 3.07559 50.0779 3.1856 50.0779 4.9632V6.79474H52.7906V1.39161H50.2435V1.71793L49.9922 1.68197C49.2354 0.894449 47.8793 0.674432 46.4682 1.07745C45.3422 1.39901 43.682 2.24999 43.682 4.39411V7.01476C43.682 10.424 48.8683 11.157 48.8683 12.8246V14.6932C47.8423 16.2508 46.1377 15.5918 46.1747 13.8136V12.0778L43.8476 12.1217ZM22.4503 3.66742V19.1607C22.6529 20.3354 24.4479 21.7031 25.814 21.701C30.2282 21.6946 31.3452 20.4676 32.0258 18.2902V12.4121H29.1207V17.9644C27.8053 19.2734 26.7676 18.4869 26.3472 17.4476V4.38459C27.1802 2.85028 28.2438 2.85028 29.1207 4.42955V8.09528H32.0697V1.39161H29.1207V1.91785C28.8123 1.38579 28.3152 0.953156 26.6539 0.953156C24.8451 0.953156 22.9554 2.2648 22.4503 3.66742ZM8.66057 1.39161H15.3843V2.85028C14.4873 2.70484 13.8035 3.37759 13.6639 4.24814L13.7474 20.1418C13.9161 21.738 14.4699 22.6445 15.4092 22.8629C16.348 23.0808 17.2238 22.6937 18.0367 21.702V5.33712C18.0367 3.7404 17.63 2.70431 16.8176 2.85028V1.39161H21.9844V2.85028C21.0593 2.70484 20.6283 3.53467 20.7129 4.71991V21.7015C19.4795 25.2086 16.7896 26.6493 13.0329 26.0193C13.0329 26.0193 12.6833 25.885 12.439 25.5079C12.4934 24.8362 12.6833 22.5461 12.6182 22.0183C12.5368 21.3593 11.7731 21.125 11.7731 21.125C11.7731 21.125 10.6756 20.7685 9.9299 21.2022L9.9225 21.125C9.93413 14.589 9.9225 4.42955 9.9225 4.42955C9.9225 3.7769 9.50203 3.04333 8.66057 2.85028V1.39161ZM0 28.7844V30.2008H11.1411C11.1411 30.2008 11.3902 29.1699 11.524 27.4796C11.8725 23.0687 12.3522 21.5608 11.7419 21.234C10.8179 20.7379 9.28095 20.9055 9.18787 22.6773C8.90491 28.0672 7.96455 28.0312 5.61152 28.1169L5.59195 3.95778C5.67604 3.32946 6.08223 2.76513 6.81104 2.88625V1.39161H0V2.85028C0.980561 3.019 1.35819 4.24814 1.13447 5.91784V27.8414C1.13235 28.5104 0 28.7844 0 28.7844ZM70.2736 19.2332V21.0843C75.1224 22.2203 79.3826 23.8784 83.0547 26.0548C83.0547 26.0548 83.7962 26.6582 84.1622 26.2193V24.3692C83.3223 24.3692 82.9537 23.615 82.9537 22.6233V9.52487L85.8298 23.5875C86.0509 24.7352 86.7469 24.4782 86.9299 23.6351L89.9081 9.61848L89.8657 26.7323C89.8657 28.2539 89.66 28.6204 88.7894 28.7643V30.288H95.7269V28.4739C95.1938 28.4739 94.4613 28.3644 94.4613 27.2093V3.9911C94.4613 3.45957 94.8664 2.96399 95.7629 2.91534V1.39161H89.1845L86.7961 12.1222L84.6022 1.39161L79.0187 1.40536V3.00207C79.691 2.97827 80.1114 3.46274 80.2791 4.06726V15.5336H78.4713C78.2471 18.1701 77.6727 19.706 76.7472 20.1418H75.801V4.42955C75.801 3.44211 76.0046 3.03698 76.7895 2.96505V1.4043H70.2736V3.00155C71.1145 2.83177 71.535 3.53467 71.535 4.71991V17.5524C71.535 19.8789 70.2736 19.2332 70.2736 19.2332ZM79.9105 20.4285C80.0797 19.5547 80.277 18.1743 80.277 18.1743L80.2378 21.3445C80.2378 22.4261 79.5445 22.114 79.5445 22.114C79.5445 22.114 79.7835 21.0896 79.9105 20.4285ZM31.982 18.3965V20.2476L36.3453 19.2088V17.4312C36.3453 17.4312 35.4266 17.5571 35.5096 16.9108C35.6561 15.7753 36.0597 13.7406 36.0597 13.7406H38.4603C38.4603 13.7406 38.5703 14.6562 38.7539 15.9948C38.8639 16.8008 38.5471 17.1795 37.8743 17.1308V18.9449L43.6826 18.2912L43.5911 16.2872C42.7507 16.2872 42.6597 15.139 42.5095 14.2526C41.997 11.2295 41.4015 8.19841 40.971 4.32059C40.8245 3.00154 41.3941 2.91745 42.3752 2.86932V1.39108H33.9224V3.15968C34.5677 3.0629 34.7692 3.36489 34.9369 4.0662L33.045 16.7294C32.9054 17.6735 32.7113 18.3007 31.982 18.3965ZM37.2317 6.09872L37.9759 11.046H36.4622L37.2317 6.09872ZM12.8118 28.5601C37.3142 15.2157 63.5514 16.3909 86.9018 29.1551C87.6354 29.556 87.033 30.6572 86.2984 30.2563C63.2949 17.6809 37.512 16.5374 13.4116 29.6623C12.6775 30.0632 12.0767 28.96 12.8118 28.5601ZM51.0849 25.8041C51.0849 25.8041 51.1108 27.999 51.1108 29.1821C51.1108 29.84 51.4176 30.4805 52.0692 30.5715C54.0679 30.8513 53.595 30.0955 54.0679 30.1161C54.6724 30.1431 53.5162 30.6947 56.9202 30.6947C57.8542 29.4191 56.1474 30.2484 56.1474 28.631V22.5826C56.1474 22.5826 56.1681 21.5137 55.9676 21.4825C55.2272 21.3731 53.3137 21.1726 53.1476 21.646C53.0957 22.334 54.2974 22.4795 54.2974 23.1893V24.4041C53.5167 23.478 51.0849 23.6351 51.0849 25.8041ZM53.0106 25.4677C53.0106 24.9917 54.2297 24.9203 54.2297 25.3953V28.7616C54.2297 29.2514 53.0106 29.5418 53.0106 29.052V25.4677ZM46.1419 24.0762V25.0959H47.4456C47.4456 28.5781 47.0616 30.6418 48.6266 30.6418C49.9288 30.6418 50.3175 30.6688 50.8517 30.2811V29.3741C50.0668 29.7612 49.2957 29.866 49.2957 28.5506V25.0954H50.5978V24.0757H49.2957C49.2957 24.0757 49.31 23.3342 49.31 22.5842C49.31 21.8015 47.4462 22.7947 47.4462 22.7947V24.0757L46.1419 24.0762ZM42.0779 29.9331C41.8431 30.1151 41.6934 30.681 42.3614 30.681H46.8157C46.8157 29.5269 46.7607 28.7722 47.0585 27.6452C47.2404 26.955 45.7653 27.1702 45.7743 27.4077C45.8346 29.0271 45.1756 30.1346 44.771 29.4862C44.6187 29.2435 44.67 28.7579 44.67 28.7579V22.8428C44.67 22.8428 44.7901 22.5826 45.155 22.1775C45.2989 22.0172 45.1703 21.4339 44.9731 21.4492C44.3934 21.4926 43.2113 21.6507 42.0779 21.793C41.8151 21.8258 41.8457 22.3922 42.1054 22.4435C42.5026 22.5218 42.6243 23.1295 42.6243 23.1295L42.6042 28.7167C42.6042 29.5677 42.3413 29.7295 42.0779 29.9331Z" fill="white"/>
<path fill-rule="evenodd" clip-rule="evenodd" d="M9.44497 2.31015C10.2172 2.7211 10.7069 3.55516 10.7069 4.42835L10.708 5.25025L10.709 6.07161L10.7111 8.12476L10.7132 10.1774L10.7148 12.7668L10.7154 15.5086V18.2472L10.7127 20.8287C10.7127 21.0376 10.3986 21.0376 10.3986 20.8287L10.4012 18.2472L10.4017 15.5086L10.4012 12.7668L10.3996 10.1774L10.3975 8.12476L10.3959 6.07214L10.3943 5.25025L10.3927 4.42888C10.3927 3.63925 9.93419 2.89087 9.22019 2.54868C9.18529 2.53228 9.13134 2.44608 9.13134 2.40694V2.01926C9.13134 1.9357 9.20486 1.86218 9.28789 1.86218H14.7556C14.8391 1.86218 14.9121 1.9357 14.9121 2.01926V2.23558C14.9121 2.40958 14.5932 2.43285 14.4747 2.47834C13.7771 2.75019 13.3164 3.44409 13.1985 4.16655L13.1916 4.25647L13.2762 20.167C13.4529 21.8283 14.1717 23.5768 16.1582 23.3806C17.0779 23.2896 17.8316 22.6914 18.3985 21.9986C18.4033 21.9891 18.4028 21.9833 18.4091 21.9684L18.4313 21.9108L18.4541 21.8489L18.4763 21.786L18.4943 21.7304L18.5043 21.6945L18.5049 19.6556V5.33699C18.5049 4.44211 18.3858 2.8364 17.3852 2.44185C17.3434 2.42545 17.2858 2.34083 17.2858 2.29587V2.01979C17.2858 1.93622 17.3593 1.86271 17.4428 1.86271H21.3534C21.4365 1.86271 21.51 1.93622 21.51 2.01979V2.24615C21.51 2.41064 21.189 2.45665 21.0747 2.52065C20.3533 2.92419 20.1894 3.98726 20.238 4.73564V21.5908L20.2285 21.6448C19.039 24.9112 16.5538 26.1033 13.1969 25.5681C13.1572 25.5577 13.1203 25.539 13.0885 25.5131L13.0499 25.4861L13.0023 25.4501L12.9467 25.4057C12.8686 25.3405 12.7938 25.2715 12.7225 25.1989C12.5459 25.0223 12.7934 24.8361 13.0213 25.0513C13.0451 25.0751 13.0673 25.0947 13.0885 25.1132L13.144 25.1608L13.1932 25.201L13.2329 25.2312L13.2646 25.2539L13.2805 25.2645C16.4628 25.7606 18.7878 24.6563 19.9244 21.5633V4.74569C19.8593 3.72599 20.1687 2.36727 21.3164 2.0933L21.1958 2.24615V2.01979L21.3529 2.17634H17.4423L17.5989 2.01979V2.19168C18.6683 2.71158 18.818 4.30354 18.818 5.33646V21.7014C18.818 21.7426 18.8047 21.7839 18.7931 21.8241L18.773 21.887L18.7492 21.9563L18.7238 22.0245L18.6995 22.0864C18.5112 22.5396 17.5417 23.2494 17.0853 23.452C15.5447 24.1369 14.014 23.4626 13.3736 21.9272C13.1424 21.3734 13.0256 20.7784 12.9626 20.1845L12.9515 18.1858L12.8875 6.24244L12.8769 4.24589L12.8791 4.21362L12.8833 4.16232L12.8859 4.12953C13.0419 3.15796 13.7247 2.27154 14.7249 2.08167L14.5974 2.23558V2.01926L14.7545 2.17581H9.44339V2.31015H9.44497ZM35.9915 11.0887C36.0047 11.3499 36.2073 11.5171 36.4628 11.5171H37.9754C38.6524 11.5171 38.4059 10.7422 38.3483 10.3583C38.2621 9.786 37.7395 6.02507 37.6279 5.80135C37.5518 5.65009 37.4068 5.53479 37.2323 5.53426C36.7119 5.5332 36.7177 6.33659 36.6701 6.64493L35.9968 10.9744C35.9915 11.013 35.9894 11.0511 35.9915 11.0887ZM35.6779 11.104C35.661 10.7639 35.8239 10.0483 35.8799 9.68869C35.9709 9.10215 36.4056 5.95737 36.5574 5.65696C36.6881 5.39886 36.9398 5.21957 37.2339 5.2201C37.9923 5.22169 38.0198 6.06209 38.1007 6.59945L38.7518 10.9289C38.8258 11.4219 38.4747 11.8302 37.9759 11.8302H36.4628C36.0402 11.8307 35.699 11.5319 35.6779 11.104ZM82.8236 25.4702C82.4476 25.2978 81.952 25.0725 81.457 24.8461L80.0999 24.2305C79.1875 23.8164 79.3726 24.0301 79.4647 23.031C79.4721 22.9517 79.4551 22.6893 79.5958 22.6428C80.7747 22.2535 80.5669 22.1213 80.633 21.0085L80.6631 16.7785L80.7509 4.07611L80.7313 3.93014C80.5679 3.35312 80.1839 2.81101 79.5969 2.61268C79.5493 2.59681 79.4906 2.51325 79.4906 2.46406V2.03037C79.4906 1.94733 79.563 1.87382 79.6466 1.87329L80.7583 1.87064L81.869 1.868L82.9807 1.86535L84.0914 1.86271C84.1533 1.86271 84.2331 1.92776 84.2453 1.98806L86.336 12.2147C86.4672 12.8514 87.1161 12.8567 87.2573 12.2226L89.5363 1.98382C89.5485 1.92565 89.6294 1.86112 89.6881 1.86112H95.1367C95.2203 1.86112 95.2938 1.93464 95.2938 2.0182V2.38472C95.2938 2.55926 94.8797 2.62907 94.6771 2.75759C94.2434 3.03314 93.9922 3.47371 93.9922 3.98937V27.2082C93.9922 28.0295 94.3021 28.6721 95.1367 28.8763C95.1922 28.8906 95.2568 28.9715 95.2568 29.0291V29.6596C95.2557 29.7009 95.2388 29.7402 95.2096 29.7694C95.1804 29.7987 95.141 29.8156 95.0997 29.8166H89.4173C89.376 29.8156 89.3366 29.7987 89.3074 29.7694C89.2782 29.7402 89.2613 29.7009 89.2602 29.6596V29.246C89.2602 29.0312 89.878 29.0334 90.1498 28.3061C90.3243 27.837 90.337 27.2267 90.337 26.7327L90.3476 22.454L90.3582 18.1753L90.3688 13.8976L90.3793 9.61888C90.3815 8.94719 89.5881 8.86309 89.4485 9.51997L86.5407 23.2076C86.4984 23.4091 86.2741 23.4081 86.2339 23.2066L83.4171 9.43006C83.2817 8.77212 82.4841 8.85304 82.4841 9.5242V22.6227C82.4841 23.4292 82.7422 24.441 83.5895 24.7467C83.6339 24.762 83.6937 24.8461 83.6937 24.8943V25.6273C83.6937 25.7802 83.4498 25.7574 83.4498 25.7574C83.4477 25.7574 83.2129 25.6479 82.8236 25.4702ZM83.3784 25.3798V25.0006C82.4714 24.606 82.1699 23.5318 82.1699 22.6237V9.52526C82.1699 8.47806 83.5128 8.34214 83.7227 9.36818L86.3889 22.408L86.9601 19.7212L89.1396 9.45545C89.3575 8.43204 90.694 8.57432 90.6925 9.62046L90.6819 13.8986L90.6713 18.1768L90.6607 22.4556L90.6501 26.7332C90.6501 27.7228 90.6152 28.8837 89.5738 29.3496V29.5035H94.9421V29.1492C94.034 28.8726 93.6775 28.1194 93.6775 27.2092V3.99096C93.6775 3.15796 94.2106 2.53281 94.9791 2.27048V2.17581H89.8134L89.2724 4.61293L87.563 12.2919C87.3493 13.2555 86.2276 13.246 86.0292 12.2787L83.9634 2.1774L82.9823 2.18004L81.8706 2.18269L80.7589 2.18533L79.8053 2.18745V2.35616C80.4373 2.61532 80.8577 3.21296 81.0365 3.85662L81.0407 3.87778L81.0635 4.04544L81.0656 4.06765L80.9767 16.7811L80.9466 21.0233C80.8784 22.1832 81.0476 22.4778 79.7926 22.9072L79.7169 23.7117L80.2305 23.9438L81.5876 24.5605L82.9543 25.1836L83.3784 25.3798ZM65.0191 16.6214L65.0265 16.5415V4.21944L65.0159 4.11155C64.9138 3.60646 64.678 3.05007 64.1898 2.81048C64.156 2.79356 64.1009 2.70788 64.1009 2.6698V2.01926C64.1009 1.9357 64.1755 1.86218 64.258 1.86218H68.9302C69.0138 1.86218 69.0873 1.9357 69.0873 2.01926V2.32073C69.0873 2.45031 68.7494 2.61955 68.6526 2.71951C68.3241 3.05588 68.2051 3.53506 68.2051 3.99413V17.64C68.1834 18.4386 68.5325 19.0606 69.3158 19.3081C69.3634 19.3235 69.4242 19.4076 69.4242 19.4578V20.083C69.4242 20.2046 69.3332 20.2702 69.2174 20.2305C67.5255 19.6593 65.7664 19.2939 63.9893 19.1087C63.919 19.1013 63.8497 19.0241 63.8497 18.9527V18.3054C63.8497 18.1483 64.203 18.0689 64.3495 17.9499C64.7356 17.6411 64.9281 17.1138 65.017 16.6431L65.0191 16.6214ZM69.1095 19.8645V19.5699C68.2607 19.2505 67.8677 18.5227 67.8915 17.6374V3.99361C67.8915 3.28701 68.1427 2.60316 68.7737 2.22817V2.17581H65.4258L64.4146 2.18216V2.57565C64.9477 2.884 65.21 3.4864 65.3269 4.06501L65.3311 4.10309L65.3375 4.16497L65.3407 4.20357V16.5558L65.3375 16.5923L65.3322 16.6499L65.328 16.6859C65.1968 17.3793 64.8684 18.1425 64.1639 18.4175V18.8104C65.842 18.9956 67.5043 19.3399 69.1095 19.8645ZM55.0416 15.3965L55.0612 15.2664V4.42941C55.0612 3.05218 53.8008 2.96016 53.8008 2.69836V2.02032C53.8008 1.93675 53.8743 1.86324 53.9579 1.86324H62.7512C62.8337 1.86324 62.9072 1.93675 62.9072 2.02032V5.87117C62.9062 5.91226 62.8894 5.95138 62.8604 5.9805C62.8314 6.00962 62.7923 6.02651 62.7512 6.02772H61.4819C61.4407 6.02638 61.4017 6.00937 61.3727 5.98017C61.3437 5.95096 61.3269 5.91178 61.3259 5.87063C61.3301 3.94865 60.175 3.14157 58.3323 3.30764C58.1176 3.32721 57.9034 3.56203 57.9034 3.77676V8.71183C57.9034 9.51363 59.3547 9.10903 59.7112 8.91968C60.422 8.54153 60.2728 7.91215 60.523 7.91215H61.4877C61.5713 7.91215 61.6448 7.98567 61.6448 8.0687V11.4938C61.6437 11.5351 61.6268 11.5743 61.5976 11.6035C61.5683 11.6326 61.529 11.6494 61.4877 11.6503H60.5071C60.4617 11.6503 60.377 11.5927 60.3606 11.5499C60.0444 10.72 59.2204 10.4212 58.3958 10.3821C58.3323 10.3797 58.269 10.39 58.2096 10.4125C58.1502 10.435 58.096 10.4692 58.05 10.513C58.004 10.5568 57.9673 10.6094 57.9421 10.6677C57.9168 10.726 57.9035 10.7887 57.9029 10.8522V14.3493L57.9018 15.5192C57.8553 16.3622 58.1467 17.1127 58.9792 17.4322C59.0215 17.4486 59.0791 17.5321 59.0791 17.5776V17.9552C59.0791 18.2868 58.133 18.0721 57.6723 18.0473L53.9473 17.8521C53.908 17.8482 53.8713 17.8303 53.844 17.8017C53.8168 17.7731 53.8007 17.7356 53.7987 17.6961V16.9927C53.7987 16.8472 54.1631 16.7213 54.2789 16.6309C54.6592 16.3347 54.8893 15.883 55.0342 15.4324L55.0416 15.3965ZM58.7682 17.7902V17.6839C57.8749 17.2909 57.5401 16.441 57.5903 15.5102V10.8522C57.5903 10.4085 57.9695 10.0478 58.4127 10.069C59.323 10.1123 60.2226 10.4524 60.614 11.3367H61.3322V8.22525H60.6515C60.386 9.24283 59.2806 9.51416 58.3593 9.49564C57.9505 9.48718 57.5908 9.12066 57.5908 8.7113V3.77623C57.5908 3.39966 57.9299 3.02838 58.3059 2.99453C60.2459 2.81947 61.5787 3.67892 61.6384 5.71355H62.5957V2.17581H56.1576L54.1166 2.18851V2.59311C54.8956 2.9353 55.3769 3.55674 55.3769 4.42888V15.2785L55.3759 15.3023L55.3457 15.4911L55.3404 15.5144C55.1357 16.1628 54.7576 16.8033 54.1166 17.0958V17.5464L55.2093 17.603L58.7682 17.7902ZM45.3349 17.8161L45.0488 17.8172L44.7626 17.8183H44.476C44.4347 17.8172 44.3953 17.8003 44.3661 17.7711C44.3369 17.7418 44.32 17.7025 44.3189 17.6612V12.7372C44.3189 12.495 44.8626 12.5727 45.0091 12.5701C45.1556 12.5669 45.7046 12.4664 45.7046 12.7166V13.8151C45.6681 16.0285 47.9614 16.9276 49.2619 14.9522L49.3396 14.693V12.825C49.3396 11.6149 47.4229 10.7406 46.527 10.1753C45.373 9.44804 44.1533 8.51984 44.1533 7.01515V4.39503C44.1533 2.48257 45.822 1.47926 47.5504 1.36079C48.2803 1.31055 49.1249 1.46023 49.6527 2.00974C49.8056 2.16788 50.2901 2.23399 50.472 2.14196C50.592 2.08114 50.6962 1.86377 50.8025 1.86377H52.165C52.2475 1.86377 52.322 1.93728 52.322 2.02085V6.16787C52.3209 6.20915 52.3039 6.24842 52.2747 6.27762C52.2455 6.30682 52.2062 6.32375 52.165 6.32495H50.7058C50.6644 6.32388 50.6251 6.30699 50.5959 6.27776C50.5666 6.24853 50.5498 6.20919 50.5487 6.16787V4.96306C50.5487 3.77888 49.5316 2.74807 48.3236 3.20027C47.6271 3.46101 47.2987 4.13958 47.2987 4.85305V5.80558C47.2987 7.25791 48.4337 8.0285 49.5226 8.71606L49.7553 8.86204L49.9907 9.01065C51.2362 9.80452 52.2459 10.6053 52.2459 12.2184V15.2981C52.2459 16.2549 51.3552 17.1614 50.5661 17.5734C49.2233 18.2736 47.7514 18.0229 46.4905 17.2645C46.0938 17.026 45.7807 17.1942 45.777 17.6601C45.7752 17.7009 45.7582 17.7396 45.7293 17.7684C45.7005 17.7973 45.6618 17.8143 45.621 17.8161H45.3349ZM45.3338 17.502H45.475C45.5623 16.8657 46.1261 16.6796 46.6529 16.9958C47.818 17.6961 49.1773 17.9441 50.4217 17.2947C51.1003 16.9408 51.9328 16.129 51.9328 15.2976V12.2178C51.9328 10.7269 50.9713 10.0066 49.8225 9.27457L49.5882 9.12648L49.3555 8.98051C48.1634 8.22843 46.9855 7.39225 46.9855 5.80452V4.85199C46.9855 2.03566 50.8634 2.15148 50.8634 4.962V6.00867H52.0068V2.17581H50.8903C50.5682 2.64758 49.9473 2.53705 49.5242 2.29429C49.3222 2.17846 49.1947 2.01133 48.9715 1.9029C47.6382 1.25343 45.2804 1.96637 44.6695 3.35629C44.5421 3.64612 44.4659 3.98832 44.4659 4.39397V7.01409C44.4659 9.97429 49.6527 10.4238 49.6527 12.8239V14.692C49.6527 15.324 48.6849 16.0581 48.2406 16.2289C46.6122 16.8567 45.3661 15.343 45.3899 13.8124V12.8758L44.632 12.8901V17.503H45.0477L45.3338 17.502ZM30.1685 1.86218H31.442C31.5256 1.86218 31.5986 1.9357 31.5986 2.01926V7.46735C31.5975 7.50854 31.5807 7.54774 31.5515 7.57687C31.5224 7.606 31.4832 7.62283 31.442 7.6239H29.7485C29.7072 7.62297 29.6679 7.60619 29.6387 7.57704C29.6094 7.5479 29.5925 7.50863 29.5914 7.46735V4.42888C29.5914 4.42677 29.5877 4.42095 29.5851 4.41143L29.5608 4.31305L29.5354 4.21891C29.4476 3.90951 28.9229 3.32774 28.6558 3.12411C27.5145 2.25039 26.5011 3.11354 25.9336 4.15968C25.9326 4.16127 25.9336 4.16814 25.931 4.17766L25.9056 4.27392L25.8829 4.36753C25.8807 4.37705 25.8765 4.38234 25.8765 4.38445V17.4475L25.895 17.5353L25.9104 17.612C26.2901 18.5508 27.1712 19.3711 28.2555 19.0643C28.6225 18.9591 29.026 18.7232 29.4529 18.298C29.5105 18.2028 29.5629 18.0705 29.5904 17.9632L29.5914 16.7335V13.0392C29.5914 12.9562 29.6649 12.8827 29.7485 12.8827H31.3981C31.4817 12.8827 31.5547 12.9562 31.5547 13.0392V18.1932L31.5473 18.2419C30.9988 19.9476 30.17 20.6827 28.384 21.0281C27.7028 21.1592 26.8618 21.2296 25.813 21.2306C24.7976 21.2317 23.1591 20.1618 22.9253 19.1357L22.9211 19.1008V3.78575C22.9211 3.57208 23.3733 3.0104 23.5002 2.87236C24.2745 2.03037 25.5005 1.42479 26.654 1.42479C27.3833 1.42479 28.3031 1.447 28.7135 2.15466C28.9959 2.64229 29.5348 2.59786 29.5877 2.00657C29.5936 1.96853 29.6123 1.93362 29.6406 1.90758C29.669 1.88154 29.7054 1.8659 29.7438 1.86324H30.1685V1.86218ZM30.1685 2.17581H29.8786C29.702 2.9829 28.8325 2.98554 28.4422 2.31121C28.1047 1.7289 27.241 1.73789 26.654 1.73789C25.3889 1.73789 23.7562 2.62907 23.2347 3.81749V19.0823C23.4537 19.955 24.9414 20.9181 25.813 20.917C27.4193 20.9149 29.7533 20.8456 30.7333 19.3161C30.9454 18.9845 31.1009 18.6031 31.2416 18.1705V13.1973H29.9061V17.9648C29.9061 18.0774 29.7543 18.4418 29.6745 18.5217C28.6236 19.5673 27.2876 19.8603 26.2124 18.6862C26.0077 18.4619 25.6665 17.9817 25.6036 17.676L25.5877 17.5966L25.5724 17.5173C25.5679 17.4948 25.5647 17.472 25.5629 17.4491V4.38445C25.5629 4.37599 25.5671 4.34109 25.5777 4.29507L25.602 4.19511L25.6285 4.09568C25.7379 3.70272 26.2795 3.09079 26.609 2.84433C27.9196 1.86429 29.1482 2.86178 29.8072 4.04808C29.8115 4.05601 29.8247 4.08933 29.8379 4.13535L29.8659 4.23637L29.8908 4.33844C29.9019 4.38446 29.9061 4.42042 29.9061 4.42941V7.3108H31.286V2.17581H30.1685ZM11.541 21.7548L11.5473 21.7876C11.56 21.8796 11.5632 21.9727 11.5632 22.0652C11.5637 22.1456 11.5611 22.2265 11.5574 22.3069L11.5489 22.4497L11.5378 22.6079L11.523 22.7824C11.4974 23.0595 11.4687 23.3363 11.4368 23.6128L11.3818 24.1057L11.3209 24.652C11.1538 26.1684 11.0861 27.7027 10.8481 29.2095L10.8143 29.4184C10.7963 29.5194 10.7894 29.7304 10.6281 29.7304H0.627326C0.586044 29.7292 0.546782 29.7123 0.517579 29.6831C0.488376 29.6539 0.471443 29.6146 0.470245 29.5733V29.2296C0.470245 29.146 0.555396 29.0899 0.621508 29.0614L0.677041 29.0355L0.733632 29.0074L0.790224 28.9773C1.22656 28.743 1.60313 28.3691 1.60418 27.8423V5.95896L1.60577 5.93939C1.74593 4.84882 1.70679 3.10507 0.558041 2.5381C0.512677 2.50341 0.481473 2.45341 0.470245 2.39742V2.01926C0.470245 1.9357 0.543761 1.86218 0.627326 1.86218H6.18119C6.26476 1.86218 6.33775 1.9357 6.33775 2.01926V2.29322C6.33775 2.43867 5.93209 2.54974 5.78188 2.66609C5.40902 2.95328 5.18688 3.42981 5.12394 3.88889L5.12024 3.96346L5.12289 6.9776L5.125 9.99756L5.12765 13.0175L5.12976 16.0369L5.13241 19.0569L5.13452 22.0763L5.13664 25.0968L5.13928 28.1163C5.13928 28.3765 5.3667 28.5965 5.62692 28.5864C7.78056 28.5082 8.7479 28.2548 9.27414 25.9658C9.51849 24.9006 9.59941 23.7884 9.65653 22.7004C9.74538 21.0328 11.4733 21.3941 11.541 21.7548ZM6.0257 2.18004V2.01979L6.18225 2.17634H0.784406V2.3038C1.99556 2.98184 2.07331 4.75679 1.91887 5.96954V27.8428C1.91729 28.4928 1.47884 28.9657 0.936726 29.256L0.874317 29.2883L0.811908 29.3195L0.750557 29.3486L0.69185 29.3745L0.785463 29.2312V29.4179H10.4964L10.5049 29.3681L10.5387 29.1613C10.7757 27.6593 10.8434 26.1308 11.01 24.6192L11.0708 24.0718L11.1258 23.58C11.1565 23.306 11.1866 23.0315 11.2109 22.7565L11.2252 22.5851L11.2363 22.4323L11.2443 22.2927C11.2481 22.2173 11.25 22.1418 11.2501 22.0663C11.2501 21.9917 11.248 21.9166 11.2384 21.842L11.2273 21.7844L11.3135 21.897C10.5731 21.5395 10.0135 21.9076 9.97122 22.7184C9.88659 24.3268 9.775 27.4514 8.18251 28.4019C7.45846 28.8345 6.46151 28.872 5.63961 28.9017C5.53459 28.9043 5.4301 28.886 5.3322 28.8479C5.2343 28.8098 5.14495 28.7526 5.06933 28.6797C4.9937 28.6067 4.93331 28.5195 4.89167 28.4231C4.85002 28.3266 4.82794 28.2229 4.82671 28.1178L4.82459 25.0984L4.82195 22.079L4.81983 19.0585L4.81772 16.0385L4.8156 13.0191L4.81296 9.99914L4.81084 6.97919L4.8082 3.95394L4.80978 3.92802L4.81296 3.88571L4.81454 3.8598C4.90869 3.1495 5.32598 2.43127 6.0257 2.18004ZM70.7449 20.4214V19.919C70.7449 19.8571 70.8099 19.7773 70.8707 19.7651L70.9236 19.754C71.8603 19.5234 72.0052 18.3535 72.0052 17.5527V4.71924C72.0052 3.92855 71.7757 2.75177 70.8649 2.53546C70.8094 2.52223 70.7449 2.44132 70.7449 2.38314V2.03196C70.7449 1.94839 70.8184 1.87487 70.9019 1.87487H76.1612C76.2448 1.87487 76.3183 1.94839 76.3183 2.03196V2.46247C76.3183 2.6608 75.7709 2.67878 75.5128 3.27696C75.3578 3.63396 75.3309 4.04491 75.3309 4.42888V20.1411C75.3309 20.3881 75.553 20.6124 75.801 20.6124H76.7467L76.8466 20.5886L76.9323 20.5679C78.3598 19.8957 78.7723 17.3597 78.9252 15.9798C78.9479 15.773 79.4594 15.8259 79.608 15.8201L79.7878 15.8132C80.1422 15.8132 79.9967 16.7034 79.983 16.8546C79.7783 19.0617 79.3197 21.2544 78.9818 23.4446C78.9633 23.5662 78.8617 23.617 78.7533 23.5604C78.7533 23.5604 78.5539 23.4552 78.1832 23.2817C75.8476 22.1879 73.3655 21.3502 70.8633 20.7414C70.8067 20.7282 70.7433 20.6462 70.7433 20.5886V20.4214H70.7449ZM79.6979 16.1306L79.223 16.1485C79.0484 17.622 78.5909 20.1406 77.0825 20.8514C77.0577 20.8612 77.032 20.8688 77.0058 20.8742L76.9159 20.8948L76.8271 20.9144C76.801 20.9201 76.7744 20.9238 76.7477 20.9255H75.8021C75.3816 20.9255 75.0172 20.5611 75.0172 20.1417V4.42941C75.0172 3.60593 75.169 2.72797 76.0057 2.35511V2.18956H71.0595V2.26467C72.0427 2.58782 72.3209 3.80902 72.3209 4.71977V17.5517C72.3209 18.5021 72.1205 19.7291 71.0595 20.0412V20.4653C73.6691 21.109 76.2929 21.9933 78.7068 23.1844C79.0394 21.0841 79.4773 18.9379 79.6725 16.8261C79.6916 16.605 79.7196 16.3543 79.6979 16.1306ZM35.8746 18.7126C35.8746 18.7703 35.8106 18.8522 35.7541 18.8654L32.6463 19.6059C32.5379 19.6318 32.4533 19.5646 32.4533 19.453V18.8538C32.4533 18.8179 32.5061 18.7311 32.5395 18.7142C33.245 18.3567 33.4068 17.5057 33.5116 16.7985L34.4461 10.4598L35.0887 6.09912L35.3003 4.66054L35.3785 4.13165C35.4045 2.93318 34.3937 2.82582 34.3937 2.56719V2.0182C34.3937 1.93464 34.4673 1.86112 34.5508 1.86112H41.748C41.8315 1.86112 41.9045 1.93464 41.9045 2.0182V2.29587C41.9045 2.36251 41.8373 2.44079 41.7712 2.45084C40.989 2.57036 40.3416 2.92207 40.503 4.37176C40.8975 7.92167 41.5131 11.5155 42.161 15.0284C42.27 15.6191 42.4625 16.3479 43.0548 16.6383C43.098 16.672 43.1289 16.7191 43.1426 16.7721C43.1574 17.1021 43.3267 17.8547 43.0464 17.887L38.5196 18.3963C38.4975 18.3995 38.475 18.3978 38.4536 18.3913C38.4322 18.3849 38.4125 18.3739 38.3958 18.359C38.3792 18.3441 38.3659 18.3258 38.3571 18.3053C38.3482 18.2848 38.3439 18.2626 38.3446 18.2403V17.6855C38.3446 17.6347 38.4054 17.5522 38.4535 17.5369C39.0496 17.3449 39.3309 16.7398 39.2193 15.9285C39.0369 14.5952 38.9274 13.6823 38.9274 13.6823C38.9036 13.4824 38.6614 13.2677 38.4599 13.2677H36.0597C35.8857 13.2677 35.6314 13.4766 35.5975 13.6469C35.5975 13.6469 35.1908 15.7011 35.0432 16.8483C34.9158 17.8341 35.8746 17.7156 35.8746 18.0139V18.7126ZM41.5353 2.17581H34.7074V2.45665C35.3383 2.71211 35.7059 3.49698 35.6916 4.13958C35.6916 4.14064 35.6626 4.34743 35.6102 4.70708L35.3986 6.14566L34.756 10.5064L33.8215 16.8451C33.7041 17.6363 33.5147 18.5122 32.7669 18.948V19.2547L35.561 18.5883V18.1298C35.1628 17.9891 34.6286 17.6072 34.7322 16.8091C34.8809 15.6546 35.2902 13.5871 35.2902 13.5871C35.3532 13.2698 35.7361 12.9551 36.0597 12.9551H38.4604C38.8206 12.9551 39.1966 13.2883 39.2394 13.6464C39.2394 13.6464 39.3489 14.5571 39.5309 15.8873C39.6472 16.7361 39.3775 17.5036 38.6592 17.7971V18.0658L42.866 17.5924L42.8332 16.8763C41.9828 16.385 41.8828 15.2468 41.7363 14.3836C41.2212 11.3462 40.6241 8.30194 40.1914 4.40667C40.0211 2.87712 40.6976 2.35405 41.5353 2.17581ZM86.7374 29.7801C86.6888 29.8701 86.6237 29.897 86.5248 29.842C63.3912 17.1973 37.438 16.0417 13.1869 29.2491C13.0874 29.3031 13.0229 29.2761 12.9743 29.1873C12.9256 29.0973 12.9378 29.0281 13.0372 28.9746C37.3889 15.7112 63.4552 16.8752 86.6745 29.5675C86.775 29.6209 86.7871 29.6913 86.7374 29.7801Z" fill="black"/>
</svg>
