<svg width="100" height="100" viewBox="0 0 100 100" fill="none" xmlns="http://www.w3.org/2000/svg">
<path d="M2.47331 48.662C3.06165 33.0643 10.9663 18.6783 25.4166 9.17199C25.4593 9.18799 25.8336 9.05165 25.6626 9.37532C24.518 10.4367 3.93864 34.7467 22.8813 53.9353C22.8813 53.9353 32.834 63.5033 40.5516 54.4247C40.5516 54.4247 48.1673 44.5657 40.4553 29.6203C40.4553 29.6203 38.5033 24.7403 31.4703 21.7133L37.1343 15.464C37.1343 15.464 41.9206 17.5177 45.627 23.0877C45.627 23.0877 45.8246 17.2233 41.3323 10.9743L50.114 1.01099L58.8073 10.8807C58.8073 10.8807 54.8097 16.5443 54.5153 23.1813C54.5153 23.1813 57.2457 18.689 63.1073 15.4643L68.6693 21.7137C68.6693 21.7137 63.321 23.476 59.738 29.5567C56.6573 35.1907 54.2856 47.24 59.8766 54.631C59.8766 54.631 66.134 63.5037 77.1406 54.1073C77.1406 54.1073 97.378 35.9743 75.0653 9.75799C75.0653 9.75799 73.846 8.68032 75.215 9.26599C85.077 16.446 96.8857 25.9146 98.105 49.545C97.6236 78.2003 78.4343 98.6563 50.4136 98.6563C22.978 98.656 1.64998 75.761 2.47331 48.662Z" fill="#18FFFF"/>
</svg>
