<svg width="304" height="304" viewBox="0 0 304 304" fill="none" xmlns="http://www.w3.org/2000/svg">
<path d="M7.51894 147.932C9.30747 100.515 33.3377 56.7819 77.2667 27.8827C77.3964 27.9313 78.5344 27.5169 78.0145 28.5008C74.5347 31.7273 11.9736 105.63 69.5593 163.963C69.5593 163.963 99.8154 193.05 123.277 165.451C123.277 165.451 146.429 135.479 122.984 90.0456C122.984 90.0456 117.05 75.2104 95.6698 66.0083L112.888 47.0104C112.888 47.0104 127.439 53.2535 138.706 70.1863C138.706 70.1863 139.307 52.3587 125.65 33.3618L152.347 3.07324L178.774 33.077C178.774 33.077 166.621 50.2946 165.727 70.4711C165.727 70.4711 174.027 56.8144 191.846 47.0114L208.755 66.0093C208.755 66.0093 192.496 71.3668 181.604 89.8521C172.238 106.979 165.028 143.609 182.025 166.078C182.025 166.078 201.047 193.051 234.508 164.486C234.508 164.486 296.029 109.362 228.199 29.6641C228.199 29.6641 224.492 26.388 228.654 28.1684C258.634 49.9956 294.532 78.7804 298.239 150.617C296.776 237.729 238.44 299.915 153.258 299.915C69.8531 299.914 5.01601 230.313 7.51894 147.932Z" fill="black"/>
</svg>
