<svg width="43" height="43" viewBox="0 0 43 43" fill="none" xmlns="http://www.w3.org/2000/svg">
<path d="M1.06356 20.9247C1.31655 14.2177 4.71555 8.03177 10.9292 3.94404C10.9475 3.95092 11.1085 3.8923 11.035 4.03148C10.5428 4.48785 1.69366 14.9411 9.839 23.1923C9.839 23.1923 14.1187 27.3065 17.4372 23.4027C17.4372 23.4027 20.712 19.1633 17.3958 12.7368C17.3958 12.7368 16.5565 10.6384 13.5323 9.33682L15.9678 6.6496C15.9678 6.6496 18.0259 7.53268 19.6196 9.92778C19.6196 9.92778 19.7046 7.40612 17.7729 4.71905L21.549 0.434814L25.2872 4.67877C25.2872 4.67877 23.5682 7.11415 23.4416 9.96806C23.4416 9.96806 24.6157 8.03635 27.1362 6.64975L29.5278 9.33696C29.5278 9.33696 27.2281 10.0948 25.6874 12.7095C24.3627 15.1321 23.3429 20.3133 25.747 23.4914C25.747 23.4914 28.4377 27.3067 33.1705 23.2662C33.1705 23.2662 41.8726 15.469 32.2781 4.19602C32.2781 4.19602 31.7538 3.73263 32.3425 3.98446C36.5831 7.07186 41.6609 11.1434 42.1852 21.3044C41.9782 33.6262 33.7268 42.4223 21.6779 42.4223C9.88057 42.4222 0.709531 32.5773 1.06356 20.9247Z" fill="white"/>
</svg>
