<svg width="178" height="50" viewBox="0 0 178 50" fill="none" xmlns="http://www.w3.org/2000/svg">
<g clip-path="url(#clip0_4001_34)">
<path d="M177.045 48.9426V47.8852H1.93195V2.09322H176.068V48.9426H177.045V47.8852V48.9426H178V0H0V50H178V48.9426H177.045Z" fill="#C9DAD7"/>
<path d="M26.5046 1.79102H24.5727V22.2269H26.5046V1.79102Z" fill="#C9DAD7"/>
<path d="M177.349 22.0544H1.17218V24.1045H177.349V22.0544Z" fill="#C9DAD7"/>
<path fill-rule="evenodd" clip-rule="evenodd" d="M32.7563 8.0709H34.4495C35.2961 8.0709 35.9039 8.56723 35.9039 9.64621C35.9039 10.7252 35.2961 11.0705 34.1673 11.0705H32.7346V8.0709H32.7563ZM33.8851 14.3937C35.5783 14.3937 35.8171 15.0411 35.8171 17.0264C35.8171 18.3644 35.9039 19.3355 36.0124 19.6807H39.7027V19.2276C39.2685 19.2276 39.312 18.5586 39.312 16.5733C39.312 13.5305 38.5956 13.1421 37.4234 12.5595C38.7259 12.0847 39.2903 10.5957 39.2903 8.84776C39.2903 5.91294 38.0746 4.53184 34.3627 4.53184H29.1312V19.6592H32.7563V14.3937H33.8634H33.8851ZM50.5998 19.6592V16.1201H44.9776V13.7463H49.5578V10.2073H44.9776V8.04932H50.3827V4.51026H41.3307V19.6376H50.5998V19.6592ZM61.6054 8.93408C61.3449 6.27979 59.9339 4.14341 56.8515 4.14341C54.0729 4.14341 52.0542 5.76188 52.0542 8.97724C52.0542 14.7606 58.4361 13.1853 58.4361 15.4727C58.4361 16.1848 57.8283 16.5949 56.9383 16.5949C56.591 16.5949 56.2003 16.4654 55.8963 16.2064C55.5924 15.9475 55.3754 15.559 55.2885 14.998H51.8154C51.9022 17.7386 53.8124 20.0692 56.7212 20.0692C59.63 20.0692 61.9093 18.3644 61.9093 14.8469C61.9093 9.3441 55.5273 10.7468 55.5273 8.48091C55.5273 7.94142 55.8746 7.61773 56.6778 7.61773C57.0251 7.61773 57.3507 7.70404 57.6112 7.89826C57.8717 8.09248 58.0671 8.41617 58.1322 8.93408H61.5837H61.6054ZM62.9078 8.50249H66.1856V19.6592H69.8107V8.50249H73.0668V4.53184H62.9078V8.50249ZM78.1246 8.0709H79.8178C80.6644 8.0709 81.2722 8.56723 81.2722 9.64621C81.2722 10.7252 80.6644 11.0705 79.5356 11.0705H78.1029V8.0709H78.1246ZM79.2317 14.3937C80.9249 14.3937 81.1637 15.0411 81.1637 17.0264C81.1637 18.3644 81.2505 19.3355 81.359 19.6807H85.0493V19.2276C84.6151 19.2276 84.6585 18.5586 84.6585 16.5733C84.6585 13.5305 83.9422 13.1421 82.77 12.5595C84.0724 12.0847 84.6368 10.5957 84.6368 8.84776C84.6368 5.91294 83.4212 4.53184 79.731 4.53184H74.4995V19.6592H78.1246V14.3937H79.2317ZM90.3459 19.6592V4.53184H86.7207V19.6592H90.3459ZM102.98 10.3152C102.697 6.43085 100.787 4.12183 97.4007 4.12183C94.2966 4.12183 91.8654 7.16455 91.8654 12.0631C91.8654 16.9617 94.0795 20.0476 97.7481 20.0476C100.679 20.0476 102.719 17.6954 103.045 13.7895H99.5498C99.4195 15.2353 98.8551 16.3575 97.6829 16.3575C95.8378 16.3575 95.4905 14.3506 95.4905 12.2358C95.4905 9.32252 96.2503 7.83352 97.531 7.83352C98.6815 7.83352 99.3978 8.73987 99.5063 10.3152H102.958H102.98ZM104 8.50249H107.256V19.6592H110.881V8.50249H114.137V4.53184H103.978V8.50249H104ZM125.056 19.6592V16.1201H119.434V13.7463H124.014V10.2073H119.434V8.04932H124.839V4.51026H115.787V19.6376H125.056V19.6592ZM130.396 8.0709H131.09C133.022 8.0709 133.782 8.9125 133.782 12.0631C133.782 14.9116 132.849 16.1417 131.156 16.1417H130.374V8.0709H130.396ZM131.546 19.6592C135.106 19.6592 137.429 17.4796 137.429 11.7826C137.429 6.7977 135.215 4.53184 131.633 4.53184H126.771V19.6592H131.546Z" fill="#C9DAD7"/>
<path fill-rule="evenodd" clip-rule="evenodd" d="M160.634 8.35146C160.938 8.69673 161.09 9.08516 161.09 9.55992C161.09 10.0131 160.938 10.4231 160.634 10.7684C160.309 11.1136 159.918 11.2647 159.484 11.2647C159.028 11.2647 158.659 11.0921 158.333 10.7684C158.008 10.4231 157.856 10.0131 157.856 9.55992C157.856 9.08516 158.008 8.69673 158.333 8.35146C158.659 8.02776 159.028 7.85513 159.484 7.85513C159.918 7.85513 160.309 8.02776 160.634 8.35146ZM157.356 8.3083C157.074 8.76147 156.879 9.23622 156.77 9.77571C156.597 9.02043 156.401 8.52409 156.206 8.22198C155.837 7.72565 155.424 7.33721 154.969 7.07826C155.446 6.75456 156.097 6.62509 156.879 6.66825C157.747 6.71141 158.311 6.86246 158.615 7.12142C158.116 7.38037 157.704 7.76881 157.356 8.3083ZM157.834 12.6242C157.834 12.9048 157.725 13.1853 157.508 13.4011C157.313 13.6169 157.052 13.7464 156.77 13.7464C156.466 13.7464 156.228 13.6169 156.011 13.4011C155.815 13.1853 155.707 12.9263 155.707 12.6242C155.707 12.3221 155.793 12.0416 156.011 11.8258C156.206 11.61 156.466 11.5237 156.77 11.5237C157.052 11.5237 157.291 11.61 157.508 11.8258C157.704 12.0416 157.834 12.3005 157.834 12.6242ZM159.071 12.4947C159.788 12.3005 160.265 12.1063 160.526 11.8905C161.003 11.5021 161.372 11.0705 161.633 10.5957C161.937 11.0921 162.067 11.8042 162.023 12.6242C161.98 13.509 161.828 14.1348 161.589 14.4585C161.329 13.9406 160.981 13.4874 160.46 13.1637C160.026 12.84 159.57 12.6242 159.071 12.5163V12.4947ZM158.68 17.8465C158.203 18.1486 157.552 18.2565 156.792 18.2349C155.924 18.1918 155.338 18.0191 155.055 17.7818C155.533 17.5228 155.945 17.1344 156.293 16.5949C156.575 16.1417 156.77 15.667 156.879 15.1275C157.052 15.8827 157.27 16.3791 157.443 16.6596C157.834 17.1559 158.225 17.566 158.68 17.8465ZM153.015 11.9121C153.449 12.2358 153.927 12.4516 154.426 12.5595C153.71 12.7537 153.232 12.9479 152.971 13.1637C152.472 13.5521 152.103 13.9837 151.843 14.4585C151.539 13.919 151.43 13.25 151.474 12.43C151.517 11.5237 151.647 10.9194 151.886 10.5957C152.147 11.1352 152.516 11.5668 153.015 11.8905V11.9121ZM152.407 9.62466C152.407 9.1499 152.559 8.73989 152.885 8.39462C153.21 8.04934 153.579 7.87671 154.035 7.87671C154.491 7.87671 154.882 8.04934 155.186 8.39462C155.511 8.73989 155.663 9.12832 155.663 9.62466C155.663 10.0778 155.511 10.4878 155.186 10.8331C154.882 11.1568 154.491 11.3079 154.035 11.3079C153.579 11.3079 153.21 11.1352 152.885 10.8331C152.559 10.4878 152.407 10.0778 152.407 9.62466ZM159.375 13.5737C159.831 13.5737 160.2 13.7464 160.526 14.0701C160.851 14.3938 161.003 14.8038 161.003 15.2785C161.003 15.7533 160.851 16.1417 160.526 16.487C160.2 16.8323 159.831 16.9833 159.375 16.9833C158.919 16.9833 158.55 16.8107 158.225 16.487C157.899 16.1417 157.747 15.7533 157.747 15.2785C157.747 14.8038 157.899 14.3938 158.225 14.0701C158.55 13.7248 158.919 13.5737 159.375 13.5737ZM155.859 15.2138C155.859 15.7101 155.728 16.0985 155.403 16.4438C155.077 16.7459 154.686 16.9186 154.231 16.9186C153.775 16.9186 153.406 16.7459 153.102 16.4438C152.776 16.0985 152.624 15.6885 152.624 15.2138C152.624 14.7606 152.776 14.3506 153.102 14.0485C153.406 13.6816 153.796 13.509 154.231 13.509C154.686 13.509 155.077 13.6816 155.403 14.0485C155.728 14.3722 155.859 14.7822 155.859 15.2138ZM172.877 9.1499C172.551 8.78305 172.182 8.48094 171.748 8.13566C170.967 7.53143 169.99 7.01352 168.84 6.51719C167.146 5.82664 165.214 5.28715 162.957 4.89872C160.764 4.53186 158.463 4.33765 156.032 4.33765C153.753 4.33765 151.517 4.57502 149.368 5.07135C147.349 5.52453 145.526 6.17191 143.92 6.99194C142.357 7.79039 141.163 8.65357 140.294 9.62466C139.404 10.5742 138.97 11.5021 138.97 12.4084C138.97 13.3148 139.448 14.2643 140.425 15.1922C141.401 16.1201 142.726 16.9401 144.419 17.717C146.155 18.4939 148.087 19.0981 150.215 19.5081C152.516 19.9397 154.86 20.1339 157.204 20.0908C162.197 19.9397 166.278 19.1629 169.512 17.6307C170.359 17.2423 171.097 16.8323 171.705 16.3791C172.182 16.0338 172.595 15.6885 172.942 15.3217C173.745 14.4585 174.18 13.5521 174.223 12.6458C174.288 11.351 173.832 10.1641 172.834 9.08516L172.877 9.1499ZM168.709 7.79039C169.968 8.39462 170.989 9.04201 171.77 9.73255L172.096 10.0131C172.79 10.6821 173.159 11.3079 173.29 11.9337H169.816C169.773 11.1352 169.426 10.3152 168.796 9.49518C168.101 8.63199 167.168 7.83355 165.974 7.143C165.41 6.79772 164.824 6.49561 164.194 6.23665C165.844 6.62509 167.342 7.143 168.709 7.76881V7.79039ZM165.388 7.79039C166.495 8.39462 167.298 9.08517 167.928 9.86203C168.449 10.531 168.753 11.2215 168.818 11.9553H164.216C164.216 10.941 163.999 10.0131 163.63 9.08516C163.239 8.17882 162.718 7.35879 162.002 6.64667L161.72 6.36613C163.065 6.71141 164.303 7.18616 165.366 7.79039H165.388ZM149.216 11.8905H144.723C144.81 11.2 145.135 10.5094 145.678 9.84045C146.307 9.06358 147.176 8.39462 148.326 7.76881C149.281 7.22932 150.367 6.8193 151.539 6.49561L151.409 6.64667C150.714 7.33721 150.171 8.15724 149.802 9.08516C149.411 9.96993 149.238 10.9194 149.216 11.8905ZM141.553 9.79729C142.378 8.95569 143.551 8.24356 145.005 7.55301C146.351 6.97036 147.849 6.49561 149.433 6.12876C148.717 6.40929 148.066 6.75456 147.436 7.143C146.22 7.83355 145.309 8.63199 144.636 9.49518C143.985 10.3152 143.659 11.0921 143.616 11.8689H140.294C140.446 11.1568 140.88 10.4447 141.553 9.77571V9.79729ZM145.157 17.0049C143.572 16.3575 142.378 15.6454 141.488 14.8469C140.815 14.2211 140.446 13.5953 140.294 12.9911H143.702C143.833 13.5953 144.137 14.178 144.592 14.7822C145.265 15.6454 146.177 16.4438 147.328 17.1775C148.087 17.6523 148.934 18.0623 149.846 18.4291C148.131 18.0623 146.59 17.6091 145.157 17.0049ZM148.348 16.7675C147.197 16.1633 146.307 15.4727 145.678 14.7174C145.222 14.1348 144.918 13.5521 144.788 12.9911H149.26C149.346 13.6816 149.52 14.3938 149.802 15.0411C150.171 15.9475 150.714 16.7675 151.409 17.5012C151.669 17.7386 151.908 17.976 152.212 18.1918C150.779 17.8249 149.498 17.3717 148.348 16.7675ZM156.814 18.8823C155.055 18.8823 153.536 18.2349 152.299 16.897C151.061 15.5806 150.432 13.9837 150.432 12.1279C150.432 11.2 150.605 10.3368 150.931 9.49518C151.278 8.69673 151.734 7.9846 152.299 7.38037C153.558 6.06402 155.055 5.39505 156.814 5.39505C158.572 5.39505 160.135 6.02086 161.329 7.2509C162.588 8.52409 163.196 10.1641 163.196 12.1279C163.196 13.9837 162.588 15.5591 161.329 16.897C160.07 18.2133 158.572 18.8823 156.814 18.8823ZM161.003 18.3212L162.002 17.4796C162.718 16.7459 163.239 15.9259 163.63 15.0196C163.89 14.3722 164.064 13.7032 164.151 12.9911H168.774C168.644 13.5737 168.362 14.1132 167.928 14.6959C167.342 15.4727 166.517 16.1417 165.41 16.7459C164.346 17.3502 163.087 17.8249 161.654 18.1702L160.981 18.3212H161.003ZM172.096 14.7606L171.748 15.0627C170.989 15.7317 170.012 16.3575 168.753 16.9186C167.32 17.566 165.627 18.0839 163.695 18.4723H163.521C164.324 18.1918 165.084 17.8033 165.779 17.3717C167.016 16.6165 167.971 15.7533 168.709 14.8469C169.165 14.2211 169.512 13.6169 169.664 13.0127H173.181C173.007 13.6169 172.638 14.1995 172.074 14.7822L172.096 14.7606Z" fill="#C9DAD7"/>
<path fill-rule="evenodd" clip-rule="evenodd" d="M9.70317 26.6723V31.7867C9.70317 33.5562 8.79146 34.0094 7.98829 34.0094C7.18512 34.0094 6.33854 33.5131 6.33854 31.7651V26.6723H5.47025V32.0672C5.47025 33.5778 6.23 34.9805 7.96659 34.9805C9.70317 34.9805 10.5715 33.5778 10.5715 31.9162V26.6508H9.70317V26.6723ZM16.2805 33.211L13.0244 26.6723H11.9824V34.7647H12.829V28.2261L16.1285 34.7647H17.1054V26.6723H16.2588V33.211H16.2805ZM18.538 34.7647H21.1429C23.2702 34.7647 23.8998 32.4125 23.8998 30.5998C23.8998 28.2692 22.8578 26.6723 21.1646 26.6723H18.538V34.7647ZM19.428 27.6218H21.0561C22.25 27.6218 23.0098 28.6577 23.0098 30.6862C23.0098 32.7146 22.2717 33.8368 21.1212 33.8368H19.428V27.6218ZM29.9127 33.8152H26.0054V31.0962H29.5654V30.1251H26.0054V27.6434H29.8693V26.6723H25.1371V34.7647H29.9344V33.7936L29.9127 33.8152ZM32.04 31.2904H34.1673C35.2093 31.2904 35.3178 32.0672 35.3178 32.7362C35.3178 33.0383 35.3395 34.2684 35.4698 34.7647H36.5551V34.5921C36.2729 34.3978 36.2295 34.2252 36.2295 33.772L36.1861 32.3046C36.1427 31.1825 35.7737 30.9667 35.4046 30.794C35.8171 30.4919 36.3163 30.0388 36.3163 28.8519C36.3163 27.1471 35.2527 26.6723 34.189 26.6723H31.1934V34.7647H32.0617V31.2904H32.04ZM32.04 27.6218H34.2324C34.6666 27.6218 35.4046 27.7297 35.4046 28.9814C35.4046 30.233 34.7317 30.384 34.0805 30.384H32.04V27.6218ZM42.6766 26.845H42.0471C41.7866 28.1398 41.3741 28.2692 40.3322 28.3556V29.154H41.8083V34.7863H42.6549V26.8666L42.6766 26.845ZM44.7822 27.9887H48.2771C47.0615 29.7582 45.8893 32.6067 45.6722 34.7863H46.5405C46.9963 31.2472 48.5159 28.7224 49.1454 27.9024V27.0392H44.7388V28.0103L44.7822 27.9887ZM53.6605 31.2904H55.7878C56.8298 31.2904 56.9383 32.0672 56.9383 32.7362C56.9383 33.0383 56.96 34.2684 57.0902 34.7647H58.1756V34.5921C57.8934 34.3978 57.85 34.2252 57.85 33.772L57.7849 32.3046C57.7415 31.1825 57.3724 30.9667 57.0034 30.794C57.4159 30.4919 57.9151 30.0388 57.9151 28.8519C57.9151 27.1471 56.8515 26.6723 55.7878 26.6723H52.7922V34.7647H53.6605V31.2904ZM53.6605 27.6218H55.8529C56.2871 27.6218 57.0251 27.7297 57.0251 28.9814C57.0251 30.233 56.3522 30.384 55.701 30.384H53.6605V27.6218ZM64.1017 33.8152H60.1944V31.0962H63.7544V30.1251H60.1944V27.6434H64.0583V26.6723H59.3261V34.7647H64.1234V33.7936L64.1017 33.8152ZM68.3563 33.1031L69.0293 33.7505C68.7688 33.9231 68.4432 34.0094 68.0741 34.0094C66.6632 34.0094 65.8166 32.6283 65.8166 30.7077C65.8166 28.7871 66.6632 27.406 68.0741 27.406C69.4851 27.406 70.3317 28.7871 70.3317 30.7077C70.3317 31.7436 70.0712 32.6283 69.6154 33.211L68.7905 32.4125L68.3346 33.0815L68.3563 33.1031ZM71.2 34.7431L70.31 33.8799C71.0046 33.0167 71.2434 31.7436 71.2434 30.7077C71.2434 28.9598 70.5054 26.4565 68.0741 26.4565C65.6429 26.4565 64.9049 28.9814 64.9049 30.7077C64.9049 32.4341 65.6429 34.9805 68.0741 34.9805C68.7688 34.9805 69.3115 34.7863 69.7456 34.441L70.7441 35.4121L71.1783 34.7647L71.2 34.7431ZM76.4315 26.6723V31.7867C76.4315 33.5562 75.5197 34.0094 74.7166 34.0094C73.9134 34.0094 73.0668 33.5131 73.0668 31.7651V26.6723H72.1985V32.0672C72.1985 33.5778 72.9583 34.9805 74.6949 34.9805C76.4315 34.9805 77.2998 33.5778 77.2998 31.9162V26.6508H76.4315V26.6723ZM79.7093 26.6723H78.841V34.7647H79.7093V26.6723ZM82.2056 31.2904H84.3329C85.3749 31.2904 85.4834 32.0672 85.4834 32.7362C85.4834 33.0383 85.5051 34.2684 85.6354 34.7647H86.7207V34.5921C86.4602 34.3978 86.3951 34.2252 86.3951 33.772L86.3517 32.3046C86.3083 31.1825 85.9393 30.9667 85.5702 30.794C85.9827 30.4919 86.4819 30.0388 86.4819 28.8519C86.4819 27.1471 85.4183 26.6723 84.3546 26.6723H81.359V34.7647H82.2273V31.2904H82.2056ZM82.2056 27.6218H84.398C84.8322 27.6218 85.5702 27.7297 85.5702 28.9814C85.5702 30.233 84.8973 30.384 84.2461 30.384H82.2056V27.6218ZM92.6251 33.8152H88.7178V31.0962H92.2778V30.1251H88.7178V27.6434H92.5817V26.6723H87.8495V34.7647H92.6468V33.7936L92.6251 33.8152ZM98.5295 29.0461C98.4861 28.1613 98.269 26.4565 95.9898 26.4565C94.4268 26.4565 93.7539 27.6866 93.7539 28.9598C93.7539 30.3625 94.709 30.7509 95.1432 30.8588L96.4673 31.2472C97.531 31.5709 97.8566 31.8299 97.8566 32.6715C97.8566 33.8368 96.7929 34.031 96.1634 34.031C95.3385 34.031 94.3617 33.5994 94.3617 32.132H93.5368C93.5368 32.8873 93.6454 33.5562 94.188 34.1821C94.4702 34.5057 94.9478 34.9589 96.1417 34.9589C97.2488 34.9589 98.6815 34.4194 98.6815 32.4988C98.6815 31.2041 98.0519 30.5783 97.2054 30.3409L95.3602 29.8014C94.9695 29.6935 94.6005 29.4561 94.6005 28.7656C94.6005 27.5355 95.5339 27.3413 96.0766 27.3413C96.8146 27.3413 97.6395 27.7297 97.6829 28.9814H98.5078L98.5295 29.0461ZM105.953 32.4125L106.605 34.7647H107.56L105.215 26.6723H104.217L101.786 34.7647H102.697L103.37 32.4125H105.975H105.953ZM103.631 31.4414L104.673 27.8808L105.628 31.4414H103.609H103.631ZM113.442 29.1108C113.312 27.7513 112.444 26.4565 110.772 26.4565C108.884 26.4565 107.733 28.1829 107.733 30.6646C107.733 33.772 109.188 34.9805 110.664 34.9805C111.163 34.9805 113.139 34.851 113.508 31.7867H112.661C112.357 33.6641 111.38 34.0094 110.816 34.0094C109.21 34.0094 108.667 32.542 108.667 30.643C108.667 28.5066 109.622 27.4276 110.794 27.4276C111.424 27.4276 112.379 27.6866 112.618 29.1108H113.464H113.442ZM119.976 29.1108C119.846 27.7513 118.978 26.4565 117.306 26.4565C115.418 26.4565 114.267 28.1829 114.267 30.6646C114.267 33.772 115.722 34.9805 117.198 34.9805C117.697 34.9805 119.672 34.851 120.041 31.7867H119.195C118.891 33.6641 117.914 34.0094 117.35 34.0094C115.743 34.0094 115.201 32.542 115.201 30.643C115.201 28.5066 116.156 27.4276 117.328 27.4276C117.958 27.4276 118.891 27.6866 119.151 29.1108H119.998H119.976ZM126.185 30.7293C126.185 32.6283 125.338 34.031 123.927 34.031C122.516 34.031 121.67 32.6499 121.67 30.7293C121.67 28.8087 122.516 27.4276 123.927 27.4276C125.338 27.4276 126.185 28.8087 126.185 30.7293ZM127.096 30.7293C127.096 28.9814 126.358 26.4781 123.927 26.4781C121.496 26.4781 120.758 29.0029 120.758 30.7293C120.758 32.4557 121.496 35.0021 123.927 35.0021C126.358 35.0021 127.096 32.4773 127.096 30.7293ZM134.325 34.7647V26.6723H133.066L131.221 33.5131L129.376 26.6723H128.117V34.7647H128.963V29.974C128.963 29.7366 128.963 28.7224 128.963 27.9671L130.787 34.7647H131.655L133.478 27.9671C133.478 28.7224 133.478 29.7582 133.478 29.974V34.7647H134.325ZM136.626 27.6218H138.406C139.144 27.6218 139.687 27.9455 139.687 28.9814C139.687 30.0819 139.144 30.4272 138.362 30.4272H136.626V27.6218ZM136.626 31.3551H138.666C140.077 31.3551 140.598 30.0819 140.598 28.9598C140.598 27.6434 139.882 26.6723 138.666 26.6723H135.736V34.7647H136.604V31.3551H136.626ZM144.006 32.4125L144.658 34.7647H145.613L143.268 26.6723H142.27L139.839 34.7647H140.75L141.423 32.4125H144.028H144.006ZM141.662 31.4414L142.704 27.8808L143.659 31.4414H141.64H141.662ZM150.714 33.211L147.458 26.6723H146.416V34.7647H147.262V28.2261L150.562 34.7647H151.539V26.6723H150.692V33.211H150.714ZM155.707 31.5062L158.16 26.6723H157.118L155.251 30.5567L153.384 26.6723H152.364L154.817 31.5062V34.7647H155.685V31.5062H155.707ZM159.983 26.6723H159.115V34.7647H159.983V26.6723ZM165.8 33.211L162.544 26.6723H161.502V34.7647H162.349V28.2261L165.649 34.7647H166.625V26.6723H165.779V33.211H165.8ZM170.858 31.3767H172.877C172.877 32.2399 172.725 32.9736 172.161 33.5347C171.683 34.0094 171.162 34.0526 170.837 34.0526C169.1 34.0526 168.666 32.3478 168.666 30.7077C168.666 28.5929 169.621 27.4276 170.793 27.4276C171.51 27.4276 172.465 27.7297 172.747 29.1324H173.593C173.398 27.3197 172.052 26.4565 170.837 26.4565C168.709 26.4565 167.754 28.6792 167.754 30.643C167.754 31.5062 167.776 32.8873 168.774 34.0526C169.1 34.4626 169.643 34.9589 170.75 34.9589C171.64 34.9589 172.443 34.4626 172.899 33.6857L173.116 34.7431H173.68V30.4056H170.837V31.3335L170.858 31.3767ZM25.0937 38.3901H26.8737C27.59 38.3901 28.1544 38.7138 28.1544 39.7496C28.1544 40.8502 27.6117 41.1954 26.8302 41.1954H25.072V38.3901H25.0937ZM25.0937 42.1449H27.1341C28.5451 42.1449 29.0661 40.8717 29.0661 39.7496C29.0661 38.4332 28.3498 37.4622 27.1341 37.4622H24.2037V45.5545H25.072V42.1449H25.0937ZM32.4524 43.2023L33.1037 45.5545H34.0588L31.7144 37.4622H30.7159L28.2846 45.5545H29.1963L29.8693 43.2023H32.4741H32.4524ZM30.1298 42.2313L31.1717 38.6706L32.1268 42.2313H30.108H30.1298ZM35.8388 42.0802H37.9661C39.008 42.0802 39.1166 42.8571 39.1166 43.526C39.1166 43.8281 39.1383 45.0582 39.2685 45.5545H40.3539V45.3819C40.0717 45.1877 40.0283 45.015 40.0283 44.5619L39.9632 43.0944C39.9198 41.9723 39.5507 41.7565 39.1817 41.5623C39.5941 41.2602 40.0934 40.8286 40.0934 39.6201C40.0934 37.9153 39.0298 37.4406 37.9661 37.4406H34.9705V45.5329H35.8388V42.0586V42.0802ZM35.8388 38.3901H38.0312C38.4654 38.3901 39.2034 38.498 39.2034 39.7496C39.2034 41.0012 38.5305 41.1523 37.8793 41.1523H35.8388V38.3901ZM46.28 44.5834H42.3727V41.886H45.9327V40.9149H42.3727V38.4332H46.2366V37.4622H41.5044V45.5545H46.3017V44.5834H46.28ZM51.7285 44.0008L48.4724 37.4622H47.4305V45.5545H48.2771V39.0159L51.5766 45.5545H52.5534V37.4622H51.7068V44.0008H51.7285ZM53.4 38.4332H55.5924V45.5545H56.4607V38.4332H58.6532V37.4622H53.3783V38.4332H53.4ZM67.0973 41.4975C67.0973 43.3966 66.2507 44.7992 64.8398 44.7992C63.4288 44.7992 62.5822 43.4181 62.5822 41.4975C62.5822 39.577 63.4288 38.1959 64.8398 38.1959C66.2507 38.1959 67.0973 39.577 67.0973 41.4975ZM67.9873 41.4975C67.9873 39.7496 67.2493 37.2248 64.818 37.2248C62.3868 37.2248 61.6488 39.7496 61.6488 41.4975C61.6488 43.2455 62.3868 45.7703 64.818 45.7703C67.2493 45.7703 67.9873 43.2455 67.9873 41.4975ZM70.0278 42.0802H72.1551C73.1971 42.0802 73.3056 42.8571 73.3056 43.526C73.3056 43.8281 73.3273 45.0582 73.4576 45.5545H74.5429V45.3819C74.2607 45.1877 74.2173 45.015 74.2173 44.5619L74.1522 43.0944C74.1088 41.9723 73.7397 41.7565 73.3707 41.5623C73.7832 41.2602 74.2824 40.8286 74.2824 39.6201C74.2824 37.9153 73.2188 37.4406 72.1551 37.4406H69.1595V45.5329H70.0278V42.0586V42.0802ZM70.0278 38.3901H72.2202C72.6544 38.3901 73.3924 38.498 73.3924 39.7496C73.3924 41.0012 72.7195 41.1523 72.0683 41.1523H70.0278V38.3901ZM81.7063 43.2023L82.3576 45.5545H83.3127L80.9683 37.4622H79.9697L77.5385 45.5545H78.4502L79.1232 43.2023H81.7281H81.7063ZM79.3837 42.2313L80.4256 38.6706L81.3807 42.2313H79.3619H79.3837ZM84.1593 45.5545H86.7641C88.8915 45.5545 89.521 43.2023 89.521 41.3896C89.521 39.059 88.479 37.4622 86.7859 37.4622H84.1593V45.5545ZM85.0493 38.3901H86.6773C87.8712 38.3901 88.631 39.4259 88.631 41.4544C88.631 43.4829 87.8929 44.605 86.7424 44.605H85.0493V38.3901ZM94.9044 37.4622V42.5765C94.9044 44.3461 93.9927 44.7992 93.1895 44.7992C92.3863 44.7992 91.5397 44.3029 91.5397 42.5549V37.4622H90.6715V42.8571C90.6715 44.3676 91.4312 45.7703 93.1678 45.7703C94.9044 45.7703 95.7727 44.3676 95.7727 42.706V37.4406H94.9044V37.4622ZM98.0519 37.4622H97.1837V45.5545H101.351V44.5834H98.0519V37.4622ZM100.44 38.4332H102.632V45.5545H103.5V38.4332H105.693V37.4622H100.418V38.4332H100.44ZM111.858 42.1665H113.877C113.877 43.0297 113.725 43.7634 113.16 44.3245C112.683 44.7992 112.162 44.8424 111.836 44.8424C110.1 44.8424 109.665 43.1592 109.665 41.4975C109.665 39.3827 110.62 38.2174 111.793 38.2174C112.509 38.2174 113.464 38.5196 113.746 39.9222H114.593C114.398 38.1095 113.052 37.2464 111.836 37.2464C109.709 37.2464 108.754 39.4691 108.754 41.4328C108.754 42.296 108.775 43.6771 109.774 44.8424C110.1 45.2524 110.642 45.7487 111.771 45.7487C112.661 45.7487 113.464 45.2524 113.92 44.4755L114.137 45.5329H114.701V41.1954H111.858V42.1234V42.1665ZM120.324 37.4622V42.5765C120.324 44.3461 119.412 44.7992 118.609 44.7992C117.806 44.7992 116.959 44.3029 116.959 42.5549V37.4622H116.091V42.8571C116.091 44.3676 116.85 45.7703 118.587 45.7703C120.324 45.7703 121.192 44.3676 121.192 42.706V37.4406H120.324V37.4622ZM125.794 43.2023L126.445 45.5545H127.4L125.056 37.4622H124.057L121.626 45.5545H122.538L123.211 43.2023H125.816H125.794ZM123.45 42.2313L124.491 38.6706L125.447 42.2313H123.428H123.45ZM129.18 42.0802H131.308C132.35 42.0802 132.458 42.8571 132.458 43.526C132.458 43.8281 132.48 45.0582 132.61 45.5545H133.695V45.3819C133.413 45.1877 133.391 45.015 133.37 44.5619L133.305 43.0944C133.261 41.9723 132.892 41.7565 132.523 41.5623C132.936 41.2602 133.435 40.8286 133.435 39.6201C133.435 37.9153 132.371 37.4406 131.308 37.4406H128.312V45.5329H129.18V42.0586V42.0802ZM129.18 38.3901H131.373C131.807 38.3901 132.545 38.498 132.545 39.7496C132.545 41.0012 131.872 41.1523 131.221 41.1523H129.18V38.3901ZM134.781 45.5545H137.386C139.513 45.5545 140.142 43.2023 140.142 41.3896C140.142 39.059 139.1 37.4622 137.407 37.4622H134.781V45.5545ZM135.649 38.3901H137.277C138.471 38.3901 139.231 39.4259 139.231 41.4544C139.231 43.4829 138.493 44.605 137.342 44.605H135.649V38.3901ZM142.27 37.4622H141.401V45.5545H142.27V37.4622ZM147.393 43.2023L148.044 45.5545H148.999L146.655 37.4622H145.656L143.225 45.5545H144.137L144.81 43.2023H147.414H147.393ZM145.07 42.2313L146.112 38.6706L147.067 42.2313H145.048H145.07ZM154.122 44.0008L150.866 37.4622H149.824V45.5545H150.67V39.0159L153.97 45.5545H154.947V37.4622H154.1V44.0008H154.122Z" fill="#C9DAD7"/>
<path d="M3.90732 18.5802V20.4576C5.51366 20.3497 11.5917 20.3497 13.3934 20.4576L13.35 18.6017C10.7017 18.6665 10.9405 18.0838 10.9405 17.2422V13.5521L14.24 17.5659C14.8695 18.3428 15.3905 19.2923 16.0417 20.3928C22.1198 20.3928 22.8578 20.436 22.8578 20.436V18.6233C20.9041 18.4291 20.5785 18.2349 19.9056 17.4149L15.6944 12.2142C18.2993 11.8689 19.949 10.4446 19.9273 8.11403C19.9056 4.03548 16.389 4.20812 12.6554 4.14338C11.3963 4.1218 5.49195 4.14338 3.90732 4.14338V6.02081C6.36024 6.02081 6.16488 6.25818 6.16488 7.27243V17.2206C6.16488 17.868 6.49049 18.7528 3.92903 18.5586L3.90732 18.5802ZM10.9188 6.21502C11.2878 6.19344 11.5917 6.12871 11.939 6.12871C13.7407 6.12871 14.8695 6.84083 14.8695 8.41615H14.8478C14.8695 10.5525 13.1546 11.1783 10.9188 11.2431V6.21502Z" fill="#C9DAD7"/>
</g>
<defs>
<clipPath id="clip0_4001_34">
<rect width="178" height="50" fill="white"/>
</clipPath>
</defs>
</svg>
