<svg width="136" height="43" viewBox="0 0 136 43" fill="none" xmlns="http://www.w3.org/2000/svg">
<g clip-path="url(#clip0_4001_123)">
<path d="M41.8579 21.4907C41.4581 -0.563868 12.1972 -8.7275 0.892636 11.8361C1.43787 12.2361 2.11033 12.7816 2.52834 13.0543C1.71049 14.818 1.03803 16.727 0.765415 18.5089C0.638194 19.727 0.492798 20.9634 0.492798 22.327C0.492798 33.7634 9.74361 43.018 21.1754 43.018C32.6071 43.018 41.8579 33.7634 41.8579 22.327C41.8579 22.0361 41.8579 21.7634 41.8579 21.4907ZM5.67252 25.1634C5.39991 27.3452 5.5453 28.1634 5.5453 28.4361L5.00007 28.5634C4.87285 28.1634 4.32761 26.927 4.18222 25.1634C3.63698 18.4907 8.12608 12.5089 15.0687 11.4179C21.4661 10.4725 27.4455 14.418 28.954 19.9998L28.4088 20.127C28.2816 19.9998 28.009 19.5816 27.0457 18.4907C19.4124 10.7452 7.29005 14.2725 5.67252 25.1634ZM25.2646 28.8543C24.1741 30.3452 22.5384 31.3089 20.6301 31.3089C17.5041 31.3089 14.9233 28.727 14.9233 25.5998C14.9233 22.5998 17.2315 20.1452 20.2303 20.018C21.9932 19.8907 23.7743 20.9634 24.5922 22.4725C25.41 24.2361 25.1374 26.2907 23.7743 27.7816C24.3014 28.1634 24.8466 28.5816 25.2646 28.8543ZM37.0962 29.127C34.0974 35.927 27.9726 39.4725 21.448 39.3452C8.79853 38.6725 5.10911 24.2361 13.5602 18.927L13.9601 19.327C13.8329 19.4543 13.2876 19.8725 12.597 21.5089C11.6519 23.418 11.3793 25.1816 11.5065 26.418C12.179 36.6361 26.3369 38.6725 31.244 28.5998C37.3688 14.6907 20.9027 0.672496 6.19958 11.4179L5.94514 11.018C9.76178 5.03613 17.2315 2.30886 24.4468 4.0725C35.4605 6.92704 41.4581 18.3634 37.0962 29.127Z" fill="white"/>
<path d="M62.0134 13.3273V22.8546C62.0134 26.6728 59.7052 29.5273 55.4888 29.5273C51.2723 29.5273 48.9641 26.6728 48.9641 22.8546V13.3273H52.3627V22.5819C52.3627 24.8909 53.4532 26.2546 55.4888 26.2546C57.5243 26.2546 58.6148 24.8909 58.6148 22.5819V13.3273H62.0134ZM74.9354 24.7637C74.9354 27.4909 72.7545 29.5273 69.2287 29.5273H63.6491V13.4728H68.956C72.0821 13.4728 74.1358 14.9637 74.1358 17.2909C74.1358 19.0546 73.3179 20.1455 72.1002 20.6909C73.6996 21.3637 74.9354 22.5819 74.9354 24.7637ZM67.1749 16.6V20H68.9379C70.0283 20 70.7008 19.3273 70.7008 18.3637C70.7008 17.4182 70.0283 16.7273 68.9379 16.7273L67.1749 16.6ZM69.0833 26.4C70.5736 26.4 71.3914 25.7273 71.3914 24.3637C71.3914 23 70.5736 22.3273 69.0833 22.3273H67.1749V26.2728L69.0833 26.4ZM76.2985 13.4728H79.6972V29.4H76.2985V13.4728ZM88.0029 20C90.7291 20.9455 92.0922 22.1819 92.0922 24.6364C92.0922 27.9091 89.5114 29.8182 86.5126 29.8182C83.7864 29.8182 81.6055 28.6 80.8058 26.2728L83.532 24.2364C84.0772 25.7273 85.2949 26.5455 86.658 26.5455C87.7485 26.5455 88.5663 25.8728 88.5663 24.9091C88.5663 23.9637 87.8938 23.4182 85.7129 22.6C83.2594 21.6546 81.351 20.4182 81.351 17.8364C81.351 15.2546 83.532 13.3455 86.5308 13.3455C88.9843 13.3455 90.8926 14.2909 91.7105 16.2L88.9843 18.1091C88.4391 16.8909 87.6212 16.2 86.4035 16.2C85.3131 16.2 84.6406 16.7455 84.6406 17.5637C84.7315 18.5091 85.6766 19.1819 88.0029 20ZM109.358 21.4909C109.358 26.1273 105.959 29.6546 101.198 29.6546C96.2905 29.6546 93.0372 26.1091 93.0372 22.0364C93.0372 19.3091 94.1277 17.2728 95.618 16.0546L95.0728 15.5091C96.2905 14.2909 98.4714 13.3273 101.052 13.3273C105.959 13.2 109.358 16.8728 109.358 21.4909ZM105.832 21.4909C105.832 18.6364 104.069 16.5819 101.198 16.5819C99.5619 16.5819 98.3442 17.2546 97.6535 17.9455L98.1988 18.4909C97.3809 19.1637 96.5631 20.1273 96.5631 21.8909C96.5631 24.3455 98.326 26.3819 101.198 26.3819C104.051 26.4 105.832 24.3637 105.832 21.4909ZM114.265 16.8728V20.5455H121.062V23.1273H114.265V29.3819H110.721V13.4728H121.608V16.7455H114.265V16.8728ZM135.493 16.8728H131.004V29.5273H127.605V16.8728H122.971V13.4728H135.347V16.8728H135.493Z" fill="white"/>
</g>
<defs>
<clipPath id="clip0_4001_123">
<rect width="135" height="43" fill="white" transform="translate(0.492798)"/>
</clipPath>
</defs>
</svg>
