<svg width="30" height="20" viewBox="0 0 30 20" fill="none" xmlns="http://www.w3.org/2000/svg">
<path d="M21.4017 0C19.8117 0 18.4105 0.222778 17.2248 0.671675C14.5028 1.70209 12.9148 3.92415 12.7841 7.38032C12.7782 7.53488 12.7752 7.69231 12.7752 7.85212V12.5973C12.6697 15.1866 11.5974 16.3888 8.59833 16.3888C5.00616 16.3888 4.44066 14.2817 4.44066 12.1479V0H0V12.1479C0 17.4555 3.16817 20 8.59833 20C10.1883 20 11.5895 19.7772 12.7752 19.3283C15.4972 18.2979 17.0852 16.0758 17.2159 12.6197C17.2218 12.4651 17.2248 12.3077 17.2248 12.1479V7.40274C17.3303 4.81336 18.4026 3.61121 21.4017 3.61121C24.9938 3.61121 25.5593 5.71831 25.5593 7.85212V20H30V7.85212C30 2.54407 26.8318 0 21.4017 0Z" fill="#18FFFF"/>
</svg>
